G75*
G71*
%OFA0B0*%
%FSLAX33Y33*%
%IPPOS*%
%LPD*%
%AMOC8*
5,1,8,0,0,1.08239X$1,22.5*
%
%ADD10C,1.800*%
%ADD11C,2.100*%
%ADD12R,1.000X2.700*%
%ADD13R,1.800X1.800*%
%ADD14OC8,1.800*%
%ADD15R,1.400X1.500*%
%ADD16C,1.352*%
%ADD17R,1.400X1.400*%
%ADD18C,3.200*%
D10*
X016844Y035773D03*
X042844Y035773D03*
D11*
X056844Y036483D02*
X056844Y038383D01*
X002844Y038383D02*
X002844Y036483D01*
D12*
X005079Y028923D03*
X006349Y028923D03*
X007619Y028923D03*
X008889Y028923D03*
X010159Y028923D03*
X011429Y028923D03*
X012699Y028923D03*
X013969Y028923D03*
X015239Y028923D03*
X016509Y028923D03*
X017779Y028923D03*
X019049Y028923D03*
X020319Y028923D03*
X021589Y028923D03*
X022859Y028923D03*
X024129Y028923D03*
X025399Y028923D03*
X026669Y028923D03*
X027939Y028923D03*
X029209Y028923D03*
X030479Y028923D03*
X031749Y028923D03*
X033019Y028923D03*
X034289Y028923D03*
X035559Y028923D03*
X036829Y028923D03*
X038099Y028923D03*
X039369Y028923D03*
X040639Y028923D03*
X041909Y028923D03*
X043179Y028923D03*
X044449Y028923D03*
X045719Y028923D03*
X046989Y028923D03*
X048259Y028923D03*
X049529Y028923D03*
X050799Y028923D03*
X052069Y028923D03*
X053339Y028923D03*
X054609Y028923D03*
D13*
X005354Y005483D03*
X005354Y008023D03*
X005354Y020723D03*
X005354Y023263D03*
D14*
X007894Y023263D03*
X007894Y020723D03*
X010434Y020723D03*
X010434Y023263D03*
X012974Y023263D03*
X012974Y020723D03*
X015514Y020723D03*
X015514Y023263D03*
X018054Y023263D03*
X018054Y020723D03*
X020594Y020723D03*
X020594Y023263D03*
X023134Y023263D03*
X023134Y020723D03*
X025674Y020723D03*
X025674Y023263D03*
X028214Y023263D03*
X028214Y020723D03*
X030754Y020723D03*
X030754Y023263D03*
X033294Y023263D03*
X033294Y020723D03*
X035834Y020723D03*
X038374Y020723D03*
X040914Y020723D03*
X043454Y020723D03*
X045994Y020723D03*
X045994Y005483D03*
X043454Y005483D03*
X040914Y005483D03*
X038374Y005483D03*
X035834Y005483D03*
X033294Y005483D03*
X033294Y008023D03*
X030754Y008023D03*
X030754Y005483D03*
X028214Y005483D03*
X028214Y008023D03*
X025674Y008023D03*
X025674Y005483D03*
X023134Y005483D03*
X023134Y008023D03*
X020594Y008023D03*
X020594Y005483D03*
X018054Y005483D03*
X018054Y008023D03*
X015514Y008023D03*
X015514Y005483D03*
X012974Y005483D03*
X012974Y008023D03*
X010434Y008023D03*
X010434Y005483D03*
X007894Y005483D03*
X007894Y008023D03*
D15*
X038354Y007883D03*
X040354Y007883D03*
X040354Y010483D03*
X038354Y010483D03*
X044554Y010483D03*
X044554Y007883D03*
X046554Y007883D03*
X046554Y010483D03*
X046554Y013083D03*
X046554Y015683D03*
X044554Y015683D03*
X044554Y013083D03*
X044554Y018283D03*
X046554Y018283D03*
X046354Y023883D03*
X044354Y023883D03*
X040354Y023883D03*
X038354Y023883D03*
D16*
X049827Y025763D02*
X050979Y025763D01*
X050979Y021242D02*
X049827Y021242D01*
X049797Y019363D02*
X050949Y019363D01*
X050949Y014842D02*
X049797Y014842D01*
X049767Y012963D02*
X050919Y012963D01*
X050919Y008442D02*
X049767Y008442D01*
X049717Y006523D02*
X050869Y006523D01*
X050869Y002002D02*
X049717Y002002D01*
X056219Y002002D02*
X057371Y002002D01*
X057371Y006523D02*
X056219Y006523D01*
X056269Y008442D02*
X057421Y008442D01*
X057421Y012963D02*
X056269Y012963D01*
X056299Y014842D02*
X057451Y014842D01*
X057451Y019363D02*
X056299Y019363D01*
X056329Y021242D02*
X057481Y021242D01*
X057481Y025763D02*
X056329Y025763D01*
D17*
X046604Y002083D03*
X044504Y002083D03*
X040404Y002083D03*
X038304Y002083D03*
D18*
X029854Y044483D03*
X004354Y044483D03*
X004354Y071483D03*
X055354Y071483D03*
X055354Y044483D03*
M02*
