G75*
G71*
%OFA0B0*%
%FSLAX33Y33*%
%IPPOS*%
%LPD*%
%AMOC8*
5,1,8,0,0,1.08239X$1,22.5*
%
%ADD10C,0.203*%
%ADD11C,1.900*%
%ADD12R,1.600X1.600*%
%ADD13OC8,1.600*%
%ADD14C,1.152*%
%ADD15C,0.200*%
%ADD16C,0.600*%
D10*
X027470Y034984D02*
X027170Y035284D01*
X027170Y036483D01*
X027470Y036783D01*
X028369Y036783D01*
X028369Y034984D01*
X027470Y034984D01*
X029012Y035284D02*
X029012Y036483D01*
X029312Y036783D01*
X030211Y036783D01*
X030211Y034984D01*
X029312Y034984D01*
X029012Y035284D01*
X031153Y035284D02*
X031153Y036783D01*
X030854Y036783D02*
X031453Y036783D01*
X031153Y035284D02*
X031453Y034984D01*
X031753Y034984D01*
X032052Y035284D01*
D11*
X056844Y036483D02*
X056844Y038383D01*
X002844Y038383D02*
X002844Y036483D01*
D12*
X005354Y023263D03*
X005354Y020723D03*
X005354Y008023D03*
X005354Y005483D03*
D13*
X007894Y005483D03*
X007894Y008023D03*
X010434Y008023D03*
X010434Y005483D03*
X012974Y005483D03*
X012974Y008023D03*
X015514Y008023D03*
X015514Y005483D03*
X018054Y005483D03*
X018054Y008023D03*
X020594Y008023D03*
X020594Y005483D03*
X023134Y005483D03*
X023134Y008023D03*
X025674Y008023D03*
X025674Y005483D03*
X028214Y005483D03*
X028214Y008023D03*
X030754Y008023D03*
X030754Y005483D03*
X033294Y005483D03*
X033294Y008023D03*
X035834Y005483D03*
X038374Y005483D03*
X040914Y005483D03*
X043454Y005483D03*
X045994Y005483D03*
X045994Y020723D03*
X043454Y020723D03*
X040914Y020723D03*
X038374Y020723D03*
X035834Y020723D03*
X033294Y020723D03*
X033294Y023263D03*
X030754Y023263D03*
X030754Y020723D03*
X028214Y020723D03*
X028214Y023263D03*
X025674Y023263D03*
X025674Y020723D03*
X023134Y020723D03*
X023134Y023263D03*
X020594Y023263D03*
X020594Y020723D03*
X018054Y020723D03*
X018054Y023263D03*
X015514Y023263D03*
X015514Y020723D03*
X012974Y020723D03*
X012974Y023263D03*
X010434Y023263D03*
X010434Y020723D03*
X007894Y020723D03*
X007894Y023263D03*
D14*
X049827Y021242D02*
X050979Y021242D01*
X050949Y019363D02*
X049797Y019363D01*
X049797Y014842D02*
X050949Y014842D01*
X050919Y012963D02*
X049767Y012963D01*
X049767Y008442D02*
X050919Y008442D01*
X050869Y006523D02*
X049717Y006523D01*
X049717Y002002D02*
X050869Y002002D01*
X056219Y002002D02*
X057371Y002002D01*
X057371Y006523D02*
X056219Y006523D01*
X056269Y008442D02*
X057421Y008442D01*
X057421Y012963D02*
X056269Y012963D01*
X056299Y014842D02*
X057451Y014842D01*
X057451Y019363D02*
X056299Y019363D01*
X056329Y021242D02*
X057481Y021242D01*
X057481Y025763D02*
X056329Y025763D01*
X050979Y025763D02*
X049827Y025763D01*
D15*
X000754Y040483D02*
X000754Y000883D01*
X058954Y000883D01*
X058954Y040483D01*
X000754Y040483D01*
X000754Y040381D02*
X058954Y040381D01*
X058954Y040183D02*
X000754Y040183D01*
X000754Y039984D02*
X058954Y039984D01*
X058954Y039786D02*
X000754Y039786D01*
X000754Y039587D02*
X002224Y039587D01*
X002079Y039527D02*
X001700Y039147D01*
X001494Y038651D01*
X001494Y036214D01*
X001700Y035718D01*
X002079Y035338D01*
X002575Y035133D01*
X003113Y035133D01*
X003609Y035338D01*
X003988Y035718D01*
X004194Y036214D01*
X004194Y038651D01*
X003988Y039147D01*
X003609Y039527D01*
X003113Y039733D01*
X002575Y039733D01*
X002079Y039527D01*
X001941Y039389D02*
X000754Y039389D01*
X000754Y039190D02*
X001742Y039190D01*
X001635Y038992D02*
X000754Y038992D01*
X000754Y038793D02*
X001553Y038793D01*
X001494Y038595D02*
X000754Y038595D01*
X000754Y038396D02*
X001494Y038396D01*
X001494Y038198D02*
X000754Y038198D01*
X000754Y037999D02*
X001494Y037999D01*
X001494Y037801D02*
X000754Y037801D01*
X000754Y037602D02*
X001494Y037602D01*
X001494Y037404D02*
X000754Y037404D01*
X000754Y037205D02*
X001494Y037205D01*
X001494Y037007D02*
X000754Y037007D01*
X000754Y036808D02*
X001494Y036808D01*
X001494Y036610D02*
X000754Y036610D01*
X000754Y036411D02*
X001494Y036411D01*
X001495Y036213D02*
X000754Y036213D01*
X000754Y036014D02*
X001577Y036014D01*
X001659Y035816D02*
X000754Y035816D01*
X000754Y035617D02*
X001800Y035617D01*
X001999Y035419D02*
X000754Y035419D01*
X000754Y035220D02*
X002364Y035220D01*
X003324Y035220D02*
X015774Y035220D01*
X015827Y035093D02*
X016164Y034755D01*
X016605Y034573D01*
X017083Y034573D01*
X017524Y034755D01*
X017861Y035093D01*
X018044Y035534D01*
X018044Y036011D01*
X017861Y036452D01*
X017524Y036790D01*
X017083Y036973D01*
X016605Y036973D01*
X016164Y036790D01*
X015827Y036452D01*
X015644Y036011D01*
X015644Y035534D01*
X015827Y035093D01*
X015898Y035022D02*
X000754Y035022D01*
X000754Y034823D02*
X016096Y034823D01*
X016480Y034625D02*
X000754Y034625D01*
X000754Y034426D02*
X058954Y034426D01*
X058954Y034228D02*
X000754Y034228D01*
X000754Y034029D02*
X058954Y034029D01*
X058954Y033831D02*
X000754Y033831D01*
X000754Y033632D02*
X058954Y033632D01*
X058954Y033434D02*
X000754Y033434D01*
X000754Y033235D02*
X058954Y033235D01*
X058954Y033037D02*
X000754Y033037D01*
X000754Y032838D02*
X058954Y032838D01*
X058954Y032640D02*
X000754Y032640D01*
X000754Y032441D02*
X058954Y032441D01*
X058954Y032243D02*
X000754Y032243D01*
X000754Y032044D02*
X058954Y032044D01*
X058954Y031846D02*
X000754Y031846D01*
X000754Y031647D02*
X058954Y031647D01*
X058954Y031449D02*
X000754Y031449D01*
X000754Y031250D02*
X058954Y031250D01*
X058954Y031052D02*
X000754Y031052D01*
X000754Y030853D02*
X058954Y030853D01*
X058954Y030655D02*
X000754Y030655D01*
X000754Y030456D02*
X058954Y030456D01*
X058954Y030258D02*
X000754Y030258D01*
X000754Y030059D02*
X058954Y030059D01*
X058954Y029861D02*
X000754Y029861D01*
X000754Y029662D02*
X058954Y029662D01*
X058954Y029464D02*
X000754Y029464D01*
X000754Y029265D02*
X058954Y029265D01*
X058954Y029067D02*
X000754Y029067D01*
X000754Y028868D02*
X058954Y028868D01*
X058954Y028670D02*
X000754Y028670D01*
X000754Y028471D02*
X058954Y028471D01*
X058954Y028273D02*
X000754Y028273D01*
X000754Y028074D02*
X058954Y028074D01*
X058954Y027876D02*
X000754Y027876D01*
X000754Y027677D02*
X058954Y027677D01*
X058954Y027479D02*
X000754Y027479D01*
X000754Y027280D02*
X058954Y027280D01*
X058954Y027082D02*
X000754Y027082D01*
X000754Y026883D02*
X058954Y026883D01*
X058954Y026685D02*
X000754Y026685D01*
X000754Y026486D02*
X049421Y026486D01*
X049435Y026495D02*
X049300Y026405D01*
X049185Y026290D01*
X049094Y026155D01*
X049032Y026004D01*
X049004Y025863D01*
X050303Y025863D01*
X050303Y025663D01*
X050503Y025663D01*
X050503Y024937D01*
X051060Y024937D01*
X051220Y024969D01*
X051370Y025031D01*
X051506Y025122D01*
X051621Y025237D01*
X051711Y025372D01*
X051773Y025522D01*
X051801Y025663D01*
X050503Y025663D01*
X050503Y025863D01*
X051801Y025863D01*
X051773Y026004D01*
X051711Y026155D01*
X051621Y026290D01*
X051506Y026405D01*
X051370Y026495D01*
X051220Y026558D01*
X051060Y026589D01*
X050503Y026589D01*
X050503Y025863D01*
X050303Y025863D01*
X050303Y026589D01*
X049745Y026589D01*
X049586Y026558D01*
X049435Y026495D01*
X049183Y026288D02*
X030856Y026288D01*
X030761Y026383D02*
X031054Y026090D01*
X032554Y024590D01*
X032554Y024220D01*
X032797Y024463D01*
X033791Y024463D01*
X034494Y023760D01*
X034494Y022766D01*
X033791Y022063D01*
X032797Y022063D01*
X032554Y022306D01*
X032554Y021468D01*
X032859Y021773D01*
X033194Y021773D01*
X033194Y020823D01*
X033394Y020823D01*
X033394Y021773D01*
X033729Y021773D01*
X034344Y021158D01*
X034344Y020823D01*
X033394Y020823D01*
X033394Y020623D01*
X034344Y020623D01*
X034344Y020288D01*
X033729Y019673D01*
X033394Y019673D01*
X033394Y020623D01*
X033194Y020623D01*
X033194Y019673D01*
X032859Y019673D01*
X032554Y019978D01*
X032554Y018390D01*
X033501Y017443D01*
X033501Y017443D01*
X033794Y017150D01*
X033794Y009220D01*
X034494Y008520D01*
X034494Y007526D01*
X033791Y006823D01*
X032797Y006823D01*
X032094Y007526D01*
X032094Y008520D01*
X032794Y009220D01*
X032794Y016736D01*
X031847Y017683D01*
X031847Y017683D01*
X031554Y017976D01*
X031554Y019826D01*
X031251Y019523D01*
X030257Y019523D01*
X029954Y019826D01*
X029954Y018390D01*
X031254Y017090D01*
X031254Y009220D01*
X031954Y008520D01*
X031954Y007526D01*
X031251Y006823D01*
X030257Y006823D01*
X029554Y007526D01*
X029554Y008520D01*
X030254Y009220D01*
X030254Y016676D01*
X029247Y017683D01*
X028954Y017976D01*
X028954Y019766D01*
X028711Y019523D01*
X027717Y019523D01*
X027014Y020226D01*
X027014Y021220D01*
X027717Y021923D01*
X028711Y021923D01*
X028954Y021680D01*
X028954Y022306D01*
X028711Y022063D01*
X027717Y022063D01*
X027014Y022766D01*
X027014Y023760D01*
X027717Y024463D01*
X028667Y024463D01*
X028347Y024783D01*
X021761Y024783D01*
X022061Y024483D01*
X022354Y024190D01*
X022354Y024180D01*
X022637Y024463D01*
X023631Y024463D01*
X024334Y023760D01*
X024334Y022770D01*
X024561Y022543D01*
X024854Y022250D01*
X024854Y021600D01*
X025177Y021923D01*
X026171Y021923D01*
X026874Y021220D01*
X026874Y020226D01*
X026171Y019523D01*
X025177Y019523D01*
X024854Y019846D01*
X024854Y008900D01*
X025177Y009223D01*
X026171Y009223D01*
X026874Y008520D01*
X026874Y007526D01*
X026171Y006823D01*
X025177Y006823D01*
X024854Y007146D01*
X024854Y006360D01*
X025177Y006683D01*
X026171Y006683D01*
X026874Y005980D01*
X026874Y004986D01*
X026171Y004283D01*
X025177Y004283D01*
X024854Y004606D01*
X024854Y004376D01*
X023554Y003076D01*
X023261Y002783D01*
X014347Y002783D01*
X012847Y004283D01*
X012477Y004283D01*
X011774Y004986D01*
X011774Y005980D01*
X012477Y006683D01*
X013471Y006683D01*
X013754Y006400D01*
X013754Y007318D01*
X013409Y006973D01*
X013074Y006973D01*
X013074Y007923D01*
X012874Y007923D01*
X011924Y007923D01*
X011924Y007588D01*
X012539Y006973D01*
X012874Y006973D01*
X012874Y007923D01*
X012874Y008123D01*
X012874Y009073D01*
X012539Y009073D01*
X011924Y008458D01*
X011924Y008123D01*
X012874Y008123D01*
X013074Y008123D01*
X013074Y009073D01*
X013409Y009073D01*
X013754Y008728D01*
X013754Y019806D01*
X013471Y019523D01*
X012477Y019523D01*
X011774Y020226D01*
X011774Y021220D01*
X012477Y021923D01*
X012887Y021923D01*
X013027Y022063D01*
X012477Y022063D01*
X011774Y022766D01*
X011774Y023760D01*
X012477Y024463D01*
X013471Y024463D01*
X013754Y024180D01*
X013754Y024590D01*
X014047Y024883D01*
X015547Y026383D01*
X030761Y026383D01*
X031055Y026089D02*
X049067Y026089D01*
X049010Y025891D02*
X031253Y025891D01*
X031452Y025692D02*
X050303Y025692D01*
X050303Y025663D02*
X049004Y025663D01*
X049032Y025522D01*
X049094Y025372D01*
X049185Y025237D01*
X049300Y025122D01*
X049435Y025031D01*
X049586Y024969D01*
X049745Y024937D01*
X050303Y024937D01*
X050303Y025663D01*
X050303Y025494D02*
X050503Y025494D01*
X050503Y025692D02*
X056805Y025692D01*
X056805Y025663D02*
X055507Y025663D01*
X055535Y025522D01*
X055597Y025372D01*
X055687Y025237D01*
X055802Y025122D01*
X055938Y025031D01*
X056088Y024969D01*
X056248Y024937D01*
X056805Y024937D01*
X056805Y025663D01*
X057005Y025663D01*
X057005Y024937D01*
X057563Y024937D01*
X057722Y024969D01*
X057873Y025031D01*
X058008Y025122D01*
X058123Y025237D01*
X058214Y025372D01*
X058276Y025522D01*
X058304Y025663D01*
X057005Y025663D01*
X057005Y025863D01*
X058304Y025863D01*
X058276Y026004D01*
X058214Y026155D01*
X058123Y026290D01*
X058008Y026405D01*
X057873Y026495D01*
X057722Y026558D01*
X057563Y026589D01*
X057005Y026589D01*
X057005Y025863D01*
X056805Y025863D01*
X056805Y025663D01*
X056805Y025494D02*
X057005Y025494D01*
X057005Y025692D02*
X058954Y025692D01*
X058954Y025494D02*
X058264Y025494D01*
X058162Y025295D02*
X058954Y025295D01*
X058954Y025097D02*
X057971Y025097D01*
X058298Y025891D02*
X058954Y025891D01*
X058954Y026089D02*
X058241Y026089D01*
X058125Y026288D02*
X058954Y026288D01*
X058954Y026486D02*
X057887Y026486D01*
X057005Y026486D02*
X056805Y026486D01*
X056805Y026589D02*
X056805Y025863D01*
X055507Y025863D01*
X055535Y026004D01*
X055597Y026155D01*
X055687Y026290D01*
X055802Y026405D01*
X055938Y026495D01*
X056088Y026558D01*
X056248Y026589D01*
X056805Y026589D01*
X056805Y026288D02*
X057005Y026288D01*
X057005Y026089D02*
X056805Y026089D01*
X056805Y025891D02*
X057005Y025891D01*
X057005Y025295D02*
X056805Y025295D01*
X056805Y025097D02*
X057005Y025097D01*
X055840Y025097D02*
X051468Y025097D01*
X051660Y025295D02*
X055648Y025295D01*
X055546Y025494D02*
X051762Y025494D01*
X051796Y025891D02*
X055512Y025891D01*
X055570Y026089D02*
X051738Y026089D01*
X051622Y026288D02*
X055686Y026288D01*
X055924Y026486D02*
X051384Y026486D01*
X050503Y026486D02*
X050303Y026486D01*
X050303Y026288D02*
X050503Y026288D01*
X050503Y026089D02*
X050303Y026089D01*
X050303Y025891D02*
X050503Y025891D01*
X050503Y025295D02*
X050303Y025295D01*
X050303Y025097D02*
X050503Y025097D01*
X049337Y025097D02*
X032047Y025097D01*
X031849Y025295D02*
X049146Y025295D01*
X049044Y025494D02*
X031650Y025494D01*
X032246Y024898D02*
X058954Y024898D01*
X058954Y024700D02*
X032444Y024700D01*
X032554Y024501D02*
X058954Y024501D01*
X058954Y024303D02*
X033951Y024303D01*
X034150Y024104D02*
X058954Y024104D01*
X058954Y023906D02*
X034348Y023906D01*
X034494Y023707D02*
X058954Y023707D01*
X058954Y023509D02*
X034494Y023509D01*
X034494Y023310D02*
X058954Y023310D01*
X058954Y023112D02*
X034494Y023112D01*
X034494Y022913D02*
X058954Y022913D01*
X058954Y022715D02*
X034443Y022715D01*
X034245Y022516D02*
X058954Y022516D01*
X058954Y022318D02*
X034046Y022318D01*
X033848Y022119D02*
X049393Y022119D01*
X049274Y022070D02*
X048999Y021795D01*
X048850Y021436D01*
X048850Y021048D01*
X048999Y020689D01*
X049274Y020415D01*
X049632Y020266D01*
X051173Y020266D01*
X051532Y020415D01*
X051807Y020689D01*
X051955Y021048D01*
X051955Y021436D01*
X051807Y021795D01*
X051532Y022070D01*
X051173Y022218D01*
X049632Y022218D01*
X049274Y022070D01*
X049125Y021921D02*
X046493Y021921D01*
X046491Y021923D02*
X045497Y021923D01*
X044794Y021220D01*
X044794Y020226D01*
X045497Y019523D01*
X046491Y019523D01*
X047194Y020226D01*
X047194Y021220D01*
X046491Y021923D01*
X046692Y021722D02*
X048969Y021722D01*
X048887Y021524D02*
X046890Y021524D01*
X047089Y021325D02*
X048850Y021325D01*
X048850Y021127D02*
X047194Y021127D01*
X047194Y020928D02*
X048900Y020928D01*
X048982Y020730D02*
X047194Y020730D01*
X047194Y020531D02*
X049157Y020531D01*
X049471Y020333D02*
X047194Y020333D01*
X047103Y020134D02*
X049499Y020134D01*
X049556Y020158D02*
X049405Y020095D01*
X049270Y020005D01*
X049155Y019890D01*
X049064Y019755D01*
X049002Y019604D01*
X048974Y019463D01*
X050273Y019463D01*
X050273Y019263D01*
X050473Y019263D01*
X050473Y018537D01*
X051030Y018537D01*
X051190Y018569D01*
X051340Y018631D01*
X051476Y018722D01*
X051591Y018837D01*
X051681Y018972D01*
X051743Y019122D01*
X051771Y019263D01*
X050473Y019263D01*
X050473Y019463D01*
X051771Y019463D01*
X051743Y019604D01*
X051681Y019755D01*
X051591Y019890D01*
X051476Y020005D01*
X051340Y020095D01*
X051190Y020158D01*
X051030Y020189D01*
X050473Y020189D01*
X050473Y019463D01*
X050273Y019463D01*
X050273Y020189D01*
X049715Y020189D01*
X049556Y020158D01*
X049201Y019936D02*
X046904Y019936D01*
X046706Y019737D02*
X049057Y019737D01*
X048989Y019539D02*
X046507Y019539D01*
X045481Y019539D02*
X043967Y019539D01*
X043951Y019523D02*
X044654Y020226D01*
X044654Y021220D01*
X043951Y021923D01*
X042957Y021923D01*
X042254Y021220D01*
X042254Y020226D01*
X042957Y019523D01*
X043951Y019523D01*
X044166Y019737D02*
X045282Y019737D01*
X045084Y019936D02*
X044364Y019936D01*
X044563Y020134D02*
X044885Y020134D01*
X044794Y020333D02*
X044654Y020333D01*
X044654Y020531D02*
X044794Y020531D01*
X044794Y020730D02*
X044654Y020730D01*
X044654Y020928D02*
X044794Y020928D01*
X044794Y021127D02*
X044654Y021127D01*
X044549Y021325D02*
X044899Y021325D01*
X045098Y021524D02*
X044350Y021524D01*
X044152Y021722D02*
X045296Y021722D01*
X045495Y021921D02*
X043953Y021921D01*
X042955Y021921D02*
X041413Y021921D01*
X041411Y021923D02*
X040417Y021923D01*
X039714Y021220D01*
X039714Y020226D01*
X040417Y019523D01*
X041411Y019523D01*
X042114Y020226D01*
X042114Y021220D01*
X041411Y021923D01*
X041612Y021722D02*
X042756Y021722D01*
X042558Y021524D02*
X041810Y021524D01*
X042009Y021325D02*
X042359Y021325D01*
X042254Y021127D02*
X042114Y021127D01*
X042114Y020928D02*
X042254Y020928D01*
X042254Y020730D02*
X042114Y020730D01*
X042114Y020531D02*
X042254Y020531D01*
X042254Y020333D02*
X042114Y020333D01*
X042023Y020134D02*
X042345Y020134D01*
X042544Y019936D02*
X041824Y019936D01*
X041626Y019737D02*
X042742Y019737D01*
X042941Y019539D02*
X041427Y019539D01*
X040401Y019539D02*
X038887Y019539D01*
X038871Y019523D02*
X039574Y020226D01*
X039574Y021220D01*
X038871Y021923D01*
X037877Y021923D01*
X037174Y021220D01*
X037174Y020226D01*
X037877Y019523D01*
X038871Y019523D01*
X039086Y019737D02*
X040202Y019737D01*
X040004Y019936D02*
X039284Y019936D01*
X039483Y020134D02*
X039805Y020134D01*
X039714Y020333D02*
X039574Y020333D01*
X039574Y020531D02*
X039714Y020531D01*
X039714Y020730D02*
X039574Y020730D01*
X039574Y020928D02*
X039714Y020928D01*
X039714Y021127D02*
X039574Y021127D01*
X039469Y021325D02*
X039819Y021325D01*
X040018Y021524D02*
X039270Y021524D01*
X039072Y021722D02*
X040216Y021722D01*
X040415Y021921D02*
X038873Y021921D01*
X037875Y021921D02*
X036333Y021921D01*
X036331Y021923D02*
X035337Y021923D01*
X034634Y021220D01*
X034634Y020226D01*
X035337Y019523D01*
X036331Y019523D01*
X037034Y020226D01*
X037034Y021220D01*
X036331Y021923D01*
X036532Y021722D02*
X037676Y021722D01*
X037478Y021524D02*
X036730Y021524D01*
X036929Y021325D02*
X037279Y021325D01*
X037174Y021127D02*
X037034Y021127D01*
X037034Y020928D02*
X037174Y020928D01*
X037174Y020730D02*
X037034Y020730D01*
X037034Y020531D02*
X037174Y020531D01*
X037174Y020333D02*
X037034Y020333D01*
X036943Y020134D02*
X037265Y020134D01*
X037464Y019936D02*
X036744Y019936D01*
X036546Y019737D02*
X037662Y019737D01*
X037861Y019539D02*
X036347Y019539D01*
X035321Y019539D02*
X032554Y019539D01*
X032554Y019737D02*
X032795Y019737D01*
X032596Y019936D02*
X032554Y019936D01*
X032554Y019340D02*
X050273Y019340D01*
X050273Y019263D02*
X048974Y019263D01*
X049002Y019122D01*
X049064Y018972D01*
X049155Y018837D01*
X049270Y018722D01*
X049405Y018631D01*
X049556Y018569D01*
X049715Y018537D01*
X050273Y018537D01*
X050273Y019263D01*
X050273Y019142D02*
X050473Y019142D01*
X050473Y019340D02*
X056775Y019340D01*
X056775Y019263D02*
X055477Y019263D01*
X055505Y019122D01*
X055567Y018972D01*
X055657Y018837D01*
X055772Y018722D01*
X055908Y018631D01*
X056058Y018569D01*
X056218Y018537D01*
X056775Y018537D01*
X056775Y019263D01*
X056975Y019263D01*
X056975Y018537D01*
X057533Y018537D01*
X057692Y018569D01*
X057843Y018631D01*
X057978Y018722D01*
X058093Y018837D01*
X058184Y018972D01*
X058246Y019122D01*
X058274Y019263D01*
X056975Y019263D01*
X056975Y019463D01*
X058274Y019463D01*
X058246Y019604D01*
X058184Y019755D01*
X058093Y019890D01*
X057978Y020005D01*
X057843Y020095D01*
X057692Y020158D01*
X057533Y020189D01*
X056975Y020189D01*
X056975Y019463D01*
X056775Y019463D01*
X056775Y019263D01*
X056775Y019142D02*
X056975Y019142D01*
X056975Y019340D02*
X058954Y019340D01*
X058954Y019142D02*
X058250Y019142D01*
X058164Y018943D02*
X058954Y018943D01*
X058954Y018745D02*
X058001Y018745D01*
X057579Y018546D02*
X058954Y018546D01*
X058954Y018348D02*
X032596Y018348D01*
X032554Y018546D02*
X049669Y018546D01*
X049247Y018745D02*
X032554Y018745D01*
X032554Y018943D02*
X049084Y018943D01*
X048998Y019142D02*
X032554Y019142D01*
X031554Y019142D02*
X029954Y019142D01*
X029954Y019340D02*
X031554Y019340D01*
X031554Y019539D02*
X031267Y019539D01*
X031466Y019737D02*
X031554Y019737D01*
X031554Y018943D02*
X029954Y018943D01*
X029954Y018745D02*
X031554Y018745D01*
X031554Y018546D02*
X029954Y018546D01*
X029996Y018348D02*
X031554Y018348D01*
X031554Y018149D02*
X030195Y018149D01*
X030393Y017951D02*
X031579Y017951D01*
X031777Y017752D02*
X030592Y017752D01*
X030790Y017554D02*
X031976Y017554D01*
X032174Y017355D02*
X030989Y017355D01*
X031187Y017157D02*
X032373Y017157D01*
X032571Y016958D02*
X031254Y016958D01*
X031254Y016760D02*
X032770Y016760D01*
X032794Y016561D02*
X031254Y016561D01*
X031254Y016363D02*
X032794Y016363D01*
X032794Y016164D02*
X031254Y016164D01*
X031254Y015966D02*
X032794Y015966D01*
X032794Y015767D02*
X031254Y015767D01*
X031254Y015569D02*
X032794Y015569D01*
X032794Y015370D02*
X031254Y015370D01*
X031254Y015172D02*
X032794Y015172D01*
X032794Y014973D02*
X031254Y014973D01*
X031254Y014775D02*
X032794Y014775D01*
X032794Y014576D02*
X031254Y014576D01*
X031254Y014378D02*
X032794Y014378D01*
X032794Y014179D02*
X031254Y014179D01*
X031254Y013981D02*
X032794Y013981D01*
X032794Y013782D02*
X031254Y013782D01*
X031254Y013584D02*
X032794Y013584D01*
X032794Y013385D02*
X031254Y013385D01*
X031254Y013187D02*
X032794Y013187D01*
X032794Y012988D02*
X031254Y012988D01*
X031254Y012790D02*
X032794Y012790D01*
X032794Y012591D02*
X031254Y012591D01*
X031254Y012393D02*
X032794Y012393D01*
X032794Y012194D02*
X031254Y012194D01*
X031254Y011996D02*
X032794Y011996D01*
X032794Y011797D02*
X031254Y011797D01*
X031254Y011599D02*
X032794Y011599D01*
X032794Y011400D02*
X031254Y011400D01*
X031254Y011202D02*
X032794Y011202D01*
X032794Y011003D02*
X031254Y011003D01*
X031254Y010805D02*
X032794Y010805D01*
X032794Y010606D02*
X031254Y010606D01*
X031254Y010408D02*
X032794Y010408D01*
X032794Y010209D02*
X031254Y010209D01*
X031254Y010011D02*
X032794Y010011D01*
X032794Y009812D02*
X031254Y009812D01*
X031254Y009614D02*
X032794Y009614D01*
X032794Y009415D02*
X031254Y009415D01*
X031257Y009217D02*
X032791Y009217D01*
X032592Y009018D02*
X031456Y009018D01*
X031654Y008820D02*
X032394Y008820D01*
X032195Y008621D02*
X031853Y008621D01*
X031954Y008423D02*
X032094Y008423D01*
X032094Y008224D02*
X031954Y008224D01*
X031954Y008026D02*
X032094Y008026D01*
X032094Y007827D02*
X031954Y007827D01*
X031954Y007629D02*
X032094Y007629D01*
X032189Y007430D02*
X031859Y007430D01*
X031660Y007232D02*
X032388Y007232D01*
X032586Y007033D02*
X031462Y007033D01*
X031263Y006835D02*
X032785Y006835D01*
X032797Y006683D02*
X032094Y005980D01*
X032094Y004986D01*
X032797Y004283D01*
X033791Y004283D01*
X034494Y004986D01*
X034494Y005980D01*
X033791Y006683D01*
X032797Y006683D01*
X032750Y006636D02*
X031298Y006636D01*
X031251Y006683D02*
X030257Y006683D01*
X029554Y005980D01*
X029554Y004986D01*
X030257Y004283D01*
X031251Y004283D01*
X031954Y004986D01*
X031954Y005980D01*
X031251Y006683D01*
X031496Y006438D02*
X032552Y006438D01*
X032353Y006239D02*
X031695Y006239D01*
X031893Y006041D02*
X032155Y006041D01*
X032094Y005842D02*
X031954Y005842D01*
X031954Y005644D02*
X032094Y005644D01*
X032094Y005445D02*
X031954Y005445D01*
X031954Y005247D02*
X032094Y005247D01*
X032094Y005048D02*
X031954Y005048D01*
X031818Y004850D02*
X032230Y004850D01*
X032428Y004651D02*
X031620Y004651D01*
X031421Y004453D02*
X032627Y004453D01*
X033961Y004453D02*
X035167Y004453D01*
X035337Y004283D02*
X036331Y004283D01*
X037034Y004986D01*
X037034Y005980D01*
X036331Y006683D01*
X035337Y006683D01*
X034634Y005980D01*
X034634Y004986D01*
X035337Y004283D01*
X034968Y004651D02*
X034160Y004651D01*
X034358Y004850D02*
X034770Y004850D01*
X034634Y005048D02*
X034494Y005048D01*
X034494Y005247D02*
X034634Y005247D01*
X034634Y005445D02*
X034494Y005445D01*
X034494Y005644D02*
X034634Y005644D01*
X034634Y005842D02*
X034494Y005842D01*
X034433Y006041D02*
X034695Y006041D01*
X034893Y006239D02*
X034235Y006239D01*
X034036Y006438D02*
X035092Y006438D01*
X035290Y006636D02*
X033838Y006636D01*
X033803Y006835D02*
X048789Y006835D01*
X048740Y006717D02*
X048740Y006329D01*
X048889Y005970D01*
X049164Y005696D01*
X049522Y005547D01*
X051063Y005547D01*
X051422Y005696D01*
X051697Y005970D01*
X051845Y006329D01*
X051845Y006717D01*
X051697Y007076D01*
X051422Y007351D01*
X051129Y007472D01*
X051472Y007615D01*
X051747Y007889D01*
X051895Y008248D01*
X051895Y008636D01*
X051747Y008995D01*
X051472Y009270D01*
X051113Y009418D01*
X049572Y009418D01*
X049214Y009270D01*
X048939Y008995D01*
X048790Y008636D01*
X048790Y008248D01*
X048939Y007889D01*
X049214Y007615D01*
X049507Y007493D01*
X049164Y007351D01*
X048889Y007076D01*
X048740Y006717D01*
X048740Y006636D02*
X046538Y006636D01*
X046491Y006683D02*
X045497Y006683D01*
X044794Y005980D01*
X044794Y004986D01*
X045497Y004283D01*
X046491Y004283D01*
X047194Y004986D01*
X047194Y005980D01*
X046491Y006683D01*
X046736Y006438D02*
X048740Y006438D01*
X048778Y006239D02*
X046935Y006239D01*
X047133Y006041D02*
X048860Y006041D01*
X049017Y005842D02*
X047194Y005842D01*
X047194Y005644D02*
X049289Y005644D01*
X048871Y007033D02*
X034002Y007033D01*
X034200Y007232D02*
X049044Y007232D01*
X049355Y007430D02*
X034399Y007430D01*
X034494Y007629D02*
X049199Y007629D01*
X049001Y007827D02*
X034494Y007827D01*
X034494Y008026D02*
X048882Y008026D01*
X048800Y008224D02*
X034494Y008224D01*
X034494Y008423D02*
X048790Y008423D01*
X048790Y008621D02*
X034393Y008621D01*
X034194Y008820D02*
X048866Y008820D01*
X048962Y009018D02*
X033996Y009018D01*
X033797Y009217D02*
X049161Y009217D01*
X049565Y009415D02*
X033794Y009415D01*
X033794Y009614D02*
X058954Y009614D01*
X058954Y009812D02*
X033794Y009812D01*
X033794Y010011D02*
X058954Y010011D01*
X058954Y010209D02*
X033794Y010209D01*
X033794Y010408D02*
X058954Y010408D01*
X058954Y010606D02*
X033794Y010606D01*
X033794Y010805D02*
X058954Y010805D01*
X058954Y011003D02*
X033794Y011003D01*
X033794Y011202D02*
X058954Y011202D01*
X058954Y011400D02*
X033794Y011400D01*
X033794Y011599D02*
X058954Y011599D01*
X058954Y011797D02*
X033794Y011797D01*
X033794Y011996D02*
X058954Y011996D01*
X058954Y012194D02*
X057724Y012194D01*
X057662Y012169D02*
X057813Y012231D01*
X057948Y012322D01*
X058063Y012437D01*
X058154Y012572D01*
X058216Y012722D01*
X058244Y012863D01*
X056945Y012863D01*
X056945Y012137D01*
X057503Y012137D01*
X057662Y012169D01*
X058019Y012393D02*
X058954Y012393D01*
X058954Y012591D02*
X058162Y012591D01*
X058229Y012790D02*
X058954Y012790D01*
X058954Y012988D02*
X056945Y012988D01*
X056945Y013063D02*
X058244Y013063D01*
X058216Y013204D01*
X058154Y013355D01*
X058063Y013490D01*
X057948Y013605D01*
X057813Y013695D01*
X057662Y013758D01*
X057503Y013789D01*
X056945Y013789D01*
X056945Y013063D01*
X056945Y012863D01*
X056745Y012863D01*
X056745Y012137D01*
X056188Y012137D01*
X056028Y012169D01*
X055878Y012231D01*
X055742Y012322D01*
X055627Y012437D01*
X055537Y012572D01*
X055475Y012722D01*
X055447Y012863D01*
X056745Y012863D01*
X056745Y013063D01*
X055447Y013063D01*
X055475Y013204D01*
X055537Y013355D01*
X055627Y013490D01*
X055742Y013605D01*
X055878Y013695D01*
X056028Y013758D01*
X056188Y013789D01*
X056745Y013789D01*
X056745Y013063D01*
X056945Y013063D01*
X056945Y013187D02*
X056745Y013187D01*
X056745Y013385D02*
X056945Y013385D01*
X056945Y013584D02*
X056745Y013584D01*
X056745Y013782D02*
X056945Y013782D01*
X057539Y013782D02*
X058954Y013782D01*
X058954Y013584D02*
X057969Y013584D01*
X058133Y013385D02*
X058954Y013385D01*
X058954Y013187D02*
X058219Y013187D01*
X057923Y013981D02*
X058954Y013981D01*
X058954Y014179D02*
X058169Y014179D01*
X058279Y014289D02*
X058428Y014648D01*
X058428Y015036D01*
X058279Y015395D01*
X058004Y015670D01*
X057646Y015818D01*
X056105Y015818D01*
X055746Y015670D01*
X055471Y015395D01*
X055323Y015036D01*
X055323Y014648D01*
X055471Y014289D01*
X055746Y014015D01*
X056105Y013866D01*
X057646Y013866D01*
X058004Y014015D01*
X058279Y014289D01*
X058316Y014378D02*
X058954Y014378D01*
X058954Y014576D02*
X058398Y014576D01*
X058428Y014775D02*
X058954Y014775D01*
X058954Y014973D02*
X058428Y014973D01*
X058372Y015172D02*
X058954Y015172D01*
X058954Y015370D02*
X058289Y015370D01*
X058105Y015569D02*
X058954Y015569D01*
X058954Y015767D02*
X057769Y015767D01*
X058954Y015966D02*
X033794Y015966D01*
X033794Y016164D02*
X058954Y016164D01*
X058954Y016363D02*
X033794Y016363D01*
X033794Y016561D02*
X058954Y016561D01*
X058954Y016760D02*
X033794Y016760D01*
X033794Y016958D02*
X058954Y016958D01*
X058954Y017157D02*
X033787Y017157D01*
X033589Y017355D02*
X058954Y017355D01*
X058954Y017554D02*
X033390Y017554D01*
X033192Y017752D02*
X058954Y017752D01*
X058954Y017951D02*
X032993Y017951D01*
X032795Y018149D02*
X058954Y018149D01*
X058954Y019539D02*
X058259Y019539D01*
X058191Y019737D02*
X058954Y019737D01*
X058954Y019936D02*
X058047Y019936D01*
X057749Y020134D02*
X058954Y020134D01*
X058954Y020333D02*
X057837Y020333D01*
X057676Y020266D02*
X058034Y020415D01*
X058309Y020689D01*
X058458Y021048D01*
X058458Y021436D01*
X058309Y021795D01*
X058034Y022070D01*
X057676Y022218D01*
X056135Y022218D01*
X055776Y022070D01*
X055501Y021795D01*
X055353Y021436D01*
X055353Y021048D01*
X055501Y020689D01*
X055776Y020415D01*
X056135Y020266D01*
X057676Y020266D01*
X058151Y020531D02*
X058954Y020531D01*
X058954Y020730D02*
X058326Y020730D01*
X058408Y020928D02*
X058954Y020928D01*
X058954Y021127D02*
X058458Y021127D01*
X058458Y021325D02*
X058954Y021325D01*
X058954Y021524D02*
X058421Y021524D01*
X058339Y021722D02*
X058954Y021722D01*
X058954Y021921D02*
X058183Y021921D01*
X057915Y022119D02*
X058954Y022119D01*
X056975Y020134D02*
X056775Y020134D01*
X056775Y020189D02*
X056218Y020189D01*
X056058Y020158D01*
X055908Y020095D01*
X055772Y020005D01*
X055657Y019890D01*
X055567Y019755D01*
X055505Y019604D01*
X055477Y019463D01*
X056775Y019463D01*
X056775Y020189D01*
X056775Y019936D02*
X056975Y019936D01*
X056975Y019737D02*
X056775Y019737D01*
X056775Y019539D02*
X056975Y019539D01*
X056975Y018943D02*
X056775Y018943D01*
X056775Y018745D02*
X056975Y018745D01*
X056975Y018546D02*
X056775Y018546D01*
X056172Y018546D02*
X051076Y018546D01*
X051499Y018745D02*
X055749Y018745D01*
X055586Y018943D02*
X051662Y018943D01*
X051747Y019142D02*
X055501Y019142D01*
X055492Y019539D02*
X051756Y019539D01*
X051688Y019737D02*
X055560Y019737D01*
X055703Y019936D02*
X051545Y019936D01*
X051247Y020134D02*
X056001Y020134D01*
X055974Y020333D02*
X051334Y020333D01*
X051649Y020531D02*
X055659Y020531D01*
X055485Y020730D02*
X051823Y020730D01*
X051906Y020928D02*
X055402Y020928D01*
X055353Y021127D02*
X051955Y021127D01*
X051955Y021325D02*
X055353Y021325D01*
X055389Y021524D02*
X051919Y021524D01*
X051837Y021722D02*
X055471Y021722D01*
X055627Y021921D02*
X051681Y021921D01*
X051412Y022119D02*
X055896Y022119D01*
X050473Y020134D02*
X050273Y020134D01*
X050273Y019936D02*
X050473Y019936D01*
X050473Y019737D02*
X050273Y019737D01*
X050273Y019539D02*
X050473Y019539D01*
X050473Y018943D02*
X050273Y018943D01*
X050273Y018745D02*
X050473Y018745D01*
X050473Y018546D02*
X050273Y018546D01*
X049602Y015818D02*
X049244Y015670D01*
X048969Y015395D01*
X048820Y015036D01*
X048820Y014648D01*
X048969Y014289D01*
X049244Y014015D01*
X049602Y013866D01*
X051143Y013866D01*
X051502Y014015D01*
X051777Y014289D01*
X051925Y014648D01*
X051925Y015036D01*
X051777Y015395D01*
X051502Y015670D01*
X051143Y015818D01*
X049602Y015818D01*
X049479Y015767D02*
X033794Y015767D01*
X033794Y015569D02*
X049143Y015569D01*
X048959Y015370D02*
X033794Y015370D01*
X033794Y015172D02*
X048876Y015172D01*
X048820Y014973D02*
X033794Y014973D01*
X033794Y014775D02*
X048820Y014775D01*
X048850Y014576D02*
X033794Y014576D01*
X033794Y014378D02*
X048932Y014378D01*
X049079Y014179D02*
X033794Y014179D01*
X033794Y013981D02*
X049325Y013981D01*
X049375Y013695D02*
X049240Y013605D01*
X049125Y013490D01*
X049034Y013355D01*
X048972Y013204D01*
X048944Y013063D01*
X050243Y013063D01*
X050243Y012863D01*
X050443Y012863D01*
X050443Y012137D01*
X051000Y012137D01*
X051160Y012169D01*
X051310Y012231D01*
X051446Y012322D01*
X051561Y012437D01*
X051651Y012572D01*
X051713Y012722D01*
X051741Y012863D01*
X050443Y012863D01*
X050443Y013063D01*
X051741Y013063D01*
X051713Y013204D01*
X051651Y013355D01*
X051561Y013490D01*
X051446Y013605D01*
X051310Y013695D01*
X051160Y013758D01*
X051000Y013789D01*
X050443Y013789D01*
X050443Y013063D01*
X050243Y013063D01*
X050243Y013789D01*
X049685Y013789D01*
X049526Y013758D01*
X049375Y013695D01*
X049219Y013584D02*
X033794Y013584D01*
X033794Y013782D02*
X049649Y013782D01*
X050243Y013782D02*
X050443Y013782D01*
X050443Y013584D02*
X050243Y013584D01*
X050243Y013385D02*
X050443Y013385D01*
X050443Y013187D02*
X050243Y013187D01*
X050243Y012988D02*
X033794Y012988D01*
X033794Y012790D02*
X048959Y012790D01*
X048972Y012722D02*
X049034Y012572D01*
X049125Y012437D01*
X049240Y012322D01*
X049375Y012231D01*
X049526Y012169D01*
X049685Y012137D01*
X050243Y012137D01*
X050243Y012863D01*
X048944Y012863D01*
X048972Y012722D01*
X049026Y012591D02*
X033794Y012591D01*
X033794Y012393D02*
X049169Y012393D01*
X049464Y012194D02*
X033794Y012194D01*
X033794Y013187D02*
X048969Y013187D01*
X049055Y013385D02*
X033794Y013385D01*
X033294Y016943D02*
X032054Y018183D01*
X032054Y024383D01*
X030554Y025883D01*
X015754Y025883D01*
X014254Y024383D01*
X014254Y022583D01*
X012974Y021303D01*
X012974Y020723D01*
X012078Y021524D02*
X011330Y021524D01*
X011132Y021722D02*
X012276Y021722D01*
X012475Y021921D02*
X010933Y021921D01*
X010931Y021923D02*
X009937Y021923D01*
X009234Y021220D01*
X009234Y020226D01*
X009937Y019523D01*
X010931Y019523D01*
X011634Y020226D01*
X011634Y021220D01*
X010931Y021923D01*
X010931Y022063D02*
X011634Y022766D01*
X011634Y023760D01*
X010931Y024463D01*
X009937Y024463D01*
X009234Y023760D01*
X009234Y022766D01*
X009937Y022063D01*
X010931Y022063D01*
X010988Y022119D02*
X012420Y022119D01*
X012222Y022318D02*
X011186Y022318D01*
X011385Y022516D02*
X012023Y022516D01*
X011825Y022715D02*
X011583Y022715D01*
X011634Y022913D02*
X011774Y022913D01*
X011774Y023112D02*
X011634Y023112D01*
X011634Y023310D02*
X011774Y023310D01*
X011774Y023509D02*
X011634Y023509D01*
X011634Y023707D02*
X011774Y023707D01*
X011920Y023906D02*
X011488Y023906D01*
X011290Y024104D02*
X012118Y024104D01*
X012317Y024303D02*
X011091Y024303D01*
X009777Y024303D02*
X008339Y024303D01*
X008329Y024313D02*
X007994Y024313D01*
X007994Y023363D01*
X007794Y023363D01*
X007794Y024313D01*
X007459Y024313D01*
X006844Y023698D01*
X006844Y023363D01*
X007794Y023363D01*
X007794Y023163D01*
X006844Y023163D01*
X006844Y022828D01*
X007459Y022213D01*
X007794Y022213D01*
X007794Y023163D01*
X007994Y023163D01*
X007994Y023363D01*
X008944Y023363D01*
X008944Y023698D01*
X008329Y024313D01*
X008537Y024104D02*
X009578Y024104D01*
X009380Y023906D02*
X008736Y023906D01*
X008934Y023707D02*
X009234Y023707D01*
X009234Y023509D02*
X008944Y023509D01*
X008944Y023163D02*
X007994Y023163D01*
X007994Y022213D01*
X008329Y022213D01*
X008944Y022828D01*
X008944Y023163D01*
X008944Y023112D02*
X009234Y023112D01*
X009234Y023310D02*
X007994Y023310D01*
X007994Y023112D02*
X007794Y023112D01*
X007794Y023310D02*
X006554Y023310D01*
X006554Y023112D02*
X006844Y023112D01*
X006844Y022913D02*
X006554Y022913D01*
X006554Y022715D02*
X006957Y022715D01*
X007156Y022516D02*
X006554Y022516D01*
X006554Y022318D02*
X007354Y022318D01*
X007397Y021923D02*
X006694Y021220D01*
X006694Y020226D01*
X007397Y019523D01*
X008391Y019523D01*
X009094Y020226D01*
X009094Y021220D01*
X008391Y021923D01*
X007397Y021923D01*
X007395Y021921D02*
X006322Y021921D01*
X006320Y021923D02*
X006554Y021688D01*
X006554Y019757D01*
X006320Y019523D01*
X004388Y019523D01*
X004154Y019757D01*
X004154Y021688D01*
X004388Y021923D01*
X006320Y021923D01*
X006320Y022063D02*
X006554Y022297D01*
X006554Y024228D01*
X006320Y024463D01*
X004388Y024463D01*
X004154Y024228D01*
X004154Y022297D01*
X004388Y022063D01*
X006320Y022063D01*
X006376Y022119D02*
X009880Y022119D01*
X009935Y021921D02*
X008393Y021921D01*
X008592Y021722D02*
X009736Y021722D01*
X009538Y021524D02*
X008790Y021524D01*
X008989Y021325D02*
X009339Y021325D01*
X009234Y021127D02*
X009094Y021127D01*
X009094Y020928D02*
X009234Y020928D01*
X009234Y020730D02*
X009094Y020730D01*
X009094Y020531D02*
X009234Y020531D01*
X009234Y020333D02*
X009094Y020333D01*
X009003Y020134D02*
X009325Y020134D01*
X009524Y019936D02*
X008804Y019936D01*
X008606Y019737D02*
X009722Y019737D01*
X009921Y019539D02*
X008407Y019539D01*
X007381Y019539D02*
X006336Y019539D01*
X006534Y019737D02*
X007182Y019737D01*
X006984Y019936D02*
X006554Y019936D01*
X006554Y020134D02*
X006785Y020134D01*
X006694Y020333D02*
X006554Y020333D01*
X006554Y020531D02*
X006694Y020531D01*
X006694Y020730D02*
X006554Y020730D01*
X006554Y020928D02*
X006694Y020928D01*
X006694Y021127D02*
X006554Y021127D01*
X006554Y021325D02*
X006799Y021325D01*
X006998Y021524D02*
X006554Y021524D01*
X006520Y021722D02*
X007196Y021722D01*
X007794Y022318D02*
X007994Y022318D01*
X007994Y022516D02*
X007794Y022516D01*
X007794Y022715D02*
X007994Y022715D01*
X007994Y022913D02*
X007794Y022913D01*
X007794Y023509D02*
X007994Y023509D01*
X007994Y023707D02*
X007794Y023707D01*
X007794Y023906D02*
X007994Y023906D01*
X007994Y024104D02*
X007794Y024104D01*
X007794Y024303D02*
X007994Y024303D01*
X007449Y024303D02*
X006480Y024303D01*
X006554Y024104D02*
X007251Y024104D01*
X007052Y023906D02*
X006554Y023906D01*
X006554Y023707D02*
X006854Y023707D01*
X006844Y023509D02*
X006554Y023509D01*
X008434Y022318D02*
X009682Y022318D01*
X009483Y022516D02*
X008632Y022516D01*
X008831Y022715D02*
X009285Y022715D01*
X009234Y022913D02*
X008944Y022913D01*
X011344Y019936D02*
X012064Y019936D01*
X011865Y020134D02*
X011543Y020134D01*
X011634Y020333D02*
X011774Y020333D01*
X011774Y020531D02*
X011634Y020531D01*
X011634Y020730D02*
X011774Y020730D01*
X011774Y020928D02*
X011634Y020928D01*
X011634Y021127D02*
X011774Y021127D01*
X011879Y021325D02*
X011529Y021325D01*
X011146Y019737D02*
X012262Y019737D01*
X012461Y019539D02*
X010947Y019539D01*
X013487Y019539D02*
X013754Y019539D01*
X013754Y019737D02*
X013686Y019737D01*
X013754Y019340D02*
X000754Y019340D01*
X000754Y019142D02*
X013754Y019142D01*
X013754Y018943D02*
X000754Y018943D01*
X000754Y018745D02*
X013754Y018745D01*
X013754Y018546D02*
X000754Y018546D01*
X000754Y018348D02*
X013754Y018348D01*
X013754Y018149D02*
X000754Y018149D01*
X000754Y017951D02*
X013754Y017951D01*
X013754Y017752D02*
X000754Y017752D01*
X000754Y017554D02*
X013754Y017554D01*
X013754Y017355D02*
X000754Y017355D01*
X000754Y017157D02*
X013754Y017157D01*
X013754Y016958D02*
X000754Y016958D01*
X000754Y016760D02*
X013754Y016760D01*
X013754Y016561D02*
X000754Y016561D01*
X000754Y016363D02*
X013754Y016363D01*
X013754Y016164D02*
X000754Y016164D01*
X000754Y015966D02*
X013754Y015966D01*
X013754Y015767D02*
X000754Y015767D01*
X000754Y015569D02*
X013754Y015569D01*
X013754Y015370D02*
X000754Y015370D01*
X000754Y015172D02*
X013754Y015172D01*
X013754Y014973D02*
X000754Y014973D01*
X000754Y014775D02*
X013754Y014775D01*
X013754Y014576D02*
X000754Y014576D01*
X000754Y014378D02*
X013754Y014378D01*
X013754Y014179D02*
X000754Y014179D01*
X000754Y013981D02*
X013754Y013981D01*
X013754Y013782D02*
X000754Y013782D01*
X000754Y013584D02*
X013754Y013584D01*
X013754Y013385D02*
X000754Y013385D01*
X000754Y013187D02*
X013754Y013187D01*
X013754Y012988D02*
X000754Y012988D01*
X000754Y012790D02*
X013754Y012790D01*
X013754Y012591D02*
X000754Y012591D01*
X000754Y012393D02*
X013754Y012393D01*
X013754Y012194D02*
X000754Y012194D01*
X000754Y011996D02*
X013754Y011996D01*
X013754Y011797D02*
X000754Y011797D01*
X000754Y011599D02*
X013754Y011599D01*
X013754Y011400D02*
X000754Y011400D01*
X000754Y011202D02*
X013754Y011202D01*
X013754Y011003D02*
X000754Y011003D01*
X000754Y010805D02*
X013754Y010805D01*
X013754Y010606D02*
X000754Y010606D01*
X000754Y010408D02*
X013754Y010408D01*
X013754Y010209D02*
X000754Y010209D01*
X000754Y010011D02*
X013754Y010011D01*
X013754Y009812D02*
X000754Y009812D01*
X000754Y009614D02*
X013754Y009614D01*
X013754Y009415D02*
X000754Y009415D01*
X000754Y009217D02*
X004382Y009217D01*
X004388Y009223D02*
X004154Y008988D01*
X004154Y007057D01*
X004388Y006823D01*
X006320Y006823D01*
X006554Y007057D01*
X006554Y008988D01*
X006320Y009223D01*
X004388Y009223D01*
X004184Y009018D02*
X000754Y009018D01*
X000754Y008820D02*
X004154Y008820D01*
X004154Y008621D02*
X000754Y008621D01*
X000754Y008423D02*
X004154Y008423D01*
X004154Y008224D02*
X000754Y008224D01*
X000754Y008026D02*
X004154Y008026D01*
X004154Y007827D02*
X000754Y007827D01*
X000754Y007629D02*
X004154Y007629D01*
X004154Y007430D02*
X000754Y007430D01*
X000754Y007232D02*
X004154Y007232D01*
X004178Y007033D02*
X000754Y007033D01*
X000754Y006835D02*
X004376Y006835D01*
X004388Y006683D02*
X004154Y006448D01*
X004154Y004517D01*
X004388Y004283D01*
X006320Y004283D01*
X006554Y004517D01*
X006554Y006448D01*
X006320Y006683D01*
X004388Y006683D01*
X004342Y006636D02*
X000754Y006636D01*
X000754Y006438D02*
X004154Y006438D01*
X004154Y006239D02*
X000754Y006239D01*
X000754Y006041D02*
X004154Y006041D01*
X004154Y005842D02*
X000754Y005842D01*
X000754Y005644D02*
X004154Y005644D01*
X004154Y005445D02*
X000754Y005445D01*
X000754Y005247D02*
X004154Y005247D01*
X004154Y005048D02*
X000754Y005048D01*
X000754Y004850D02*
X004154Y004850D01*
X004154Y004651D02*
X000754Y004651D01*
X000754Y004453D02*
X004218Y004453D01*
X006490Y004453D02*
X007227Y004453D01*
X007397Y004283D02*
X006694Y004986D01*
X006694Y005980D01*
X007397Y006683D01*
X008391Y006683D01*
X009094Y005980D01*
X009094Y004986D01*
X008391Y004283D01*
X007397Y004283D01*
X007028Y004651D02*
X006554Y004651D01*
X006554Y004850D02*
X006830Y004850D01*
X006694Y005048D02*
X006554Y005048D01*
X006554Y005247D02*
X006694Y005247D01*
X006694Y005445D02*
X006554Y005445D01*
X006554Y005644D02*
X006694Y005644D01*
X006694Y005842D02*
X006554Y005842D01*
X006554Y006041D02*
X006755Y006041D01*
X006953Y006239D02*
X006554Y006239D01*
X006554Y006438D02*
X007152Y006438D01*
X007350Y006636D02*
X006366Y006636D01*
X006332Y006835D02*
X007385Y006835D01*
X007397Y006823D02*
X008391Y006823D01*
X009094Y007526D01*
X009094Y008520D01*
X008391Y009223D01*
X007397Y009223D01*
X006694Y008520D01*
X006694Y007526D01*
X007397Y006823D01*
X007186Y007033D02*
X006530Y007033D01*
X006554Y007232D02*
X006988Y007232D01*
X006789Y007430D02*
X006554Y007430D01*
X006554Y007629D02*
X006694Y007629D01*
X006694Y007827D02*
X006554Y007827D01*
X006554Y008026D02*
X006694Y008026D01*
X006694Y008224D02*
X006554Y008224D01*
X006554Y008423D02*
X006694Y008423D01*
X006795Y008621D02*
X006554Y008621D01*
X006554Y008820D02*
X006994Y008820D01*
X007192Y009018D02*
X006524Y009018D01*
X006326Y009217D02*
X007391Y009217D01*
X008397Y009217D02*
X013754Y009217D01*
X013754Y009018D02*
X013463Y009018D01*
X013662Y008820D02*
X013754Y008820D01*
X013074Y008820D02*
X012874Y008820D01*
X012874Y009018D02*
X013074Y009018D01*
X013074Y008621D02*
X012874Y008621D01*
X012874Y008423D02*
X013074Y008423D01*
X013074Y008224D02*
X012874Y008224D01*
X012874Y008026D02*
X010534Y008026D01*
X010534Y008123D02*
X011484Y008123D01*
X011484Y008458D01*
X010869Y009073D01*
X010534Y009073D01*
X010534Y008123D01*
X010334Y008123D01*
X010334Y009073D01*
X009999Y009073D01*
X009384Y008458D01*
X009384Y008123D01*
X010334Y008123D01*
X010334Y007923D01*
X009384Y007923D01*
X009384Y007588D01*
X009999Y006973D01*
X010334Y006973D01*
X010334Y007923D01*
X010534Y007923D01*
X010534Y008123D01*
X010534Y008224D02*
X010334Y008224D01*
X010334Y008026D02*
X009094Y008026D01*
X009094Y008224D02*
X009384Y008224D01*
X009384Y008423D02*
X009094Y008423D01*
X008993Y008621D02*
X009548Y008621D01*
X009746Y008820D02*
X008794Y008820D01*
X008596Y009018D02*
X009945Y009018D01*
X010334Y009018D02*
X010534Y009018D01*
X010534Y008820D02*
X010334Y008820D01*
X010334Y008621D02*
X010534Y008621D01*
X010534Y008423D02*
X010334Y008423D01*
X010534Y007923D02*
X011484Y007923D01*
X011484Y007588D01*
X010869Y006973D01*
X010534Y006973D01*
X010534Y007923D01*
X010534Y007827D02*
X010334Y007827D01*
X010334Y007629D02*
X010534Y007629D01*
X010534Y007430D02*
X010334Y007430D01*
X010334Y007232D02*
X010534Y007232D01*
X010534Y007033D02*
X010334Y007033D01*
X009939Y007033D02*
X008602Y007033D01*
X008800Y007232D02*
X009740Y007232D01*
X009542Y007430D02*
X008999Y007430D01*
X009094Y007629D02*
X009384Y007629D01*
X009384Y007827D02*
X009094Y007827D01*
X008403Y006835D02*
X013754Y006835D01*
X013754Y007033D02*
X013469Y007033D01*
X013668Y007232D02*
X013754Y007232D01*
X013754Y006636D02*
X013518Y006636D01*
X013716Y006438D02*
X013754Y006438D01*
X013074Y007033D02*
X012874Y007033D01*
X012874Y007232D02*
X013074Y007232D01*
X013074Y007430D02*
X012874Y007430D01*
X012874Y007629D02*
X013074Y007629D01*
X013074Y007827D02*
X012874Y007827D01*
X012280Y007232D02*
X011128Y007232D01*
X011326Y007430D02*
X012082Y007430D01*
X011924Y007629D02*
X011484Y007629D01*
X011484Y007827D02*
X011924Y007827D01*
X011924Y008224D02*
X011484Y008224D01*
X011484Y008423D02*
X011924Y008423D01*
X012088Y008621D02*
X011320Y008621D01*
X011122Y008820D02*
X012286Y008820D01*
X012485Y009018D02*
X010923Y009018D01*
X010929Y007033D02*
X012479Y007033D01*
X012430Y006636D02*
X010978Y006636D01*
X010931Y006683D02*
X009937Y006683D01*
X009234Y005980D01*
X009234Y004986D01*
X009937Y004283D01*
X010931Y004283D01*
X011634Y004986D01*
X011634Y005980D01*
X010931Y006683D01*
X011176Y006438D02*
X012232Y006438D01*
X012033Y006239D02*
X011375Y006239D01*
X011573Y006041D02*
X011835Y006041D01*
X011774Y005842D02*
X011634Y005842D01*
X011634Y005644D02*
X011774Y005644D01*
X011774Y005445D02*
X011634Y005445D01*
X011634Y005247D02*
X011774Y005247D01*
X011774Y005048D02*
X011634Y005048D01*
X011498Y004850D02*
X011910Y004850D01*
X012108Y004651D02*
X011300Y004651D01*
X011101Y004453D02*
X012307Y004453D01*
X012875Y004254D02*
X000754Y004254D01*
X000754Y004056D02*
X013074Y004056D01*
X013272Y003857D02*
X000754Y003857D01*
X000754Y003659D02*
X013471Y003659D01*
X013669Y003460D02*
X000754Y003460D01*
X000754Y003262D02*
X013868Y003262D01*
X014066Y003063D02*
X000754Y003063D01*
X000754Y002865D02*
X014265Y002865D01*
X014554Y003283D02*
X012974Y004863D01*
X012974Y005483D01*
X014254Y004583D02*
X014954Y003883D01*
X018994Y003883D01*
X020594Y005483D01*
X021460Y004651D02*
X022268Y004651D01*
X022070Y004850D02*
X021658Y004850D01*
X021794Y004986D02*
X021091Y004283D01*
X020101Y004283D01*
X019601Y003783D01*
X022847Y003783D01*
X023347Y004283D01*
X022637Y004283D01*
X021934Y004986D01*
X021934Y005980D01*
X022637Y006683D01*
X023631Y006683D01*
X023854Y006460D01*
X023854Y007046D01*
X023631Y006823D01*
X022637Y006823D01*
X021934Y007526D01*
X021934Y008520D01*
X022637Y009223D01*
X023631Y009223D01*
X023854Y009000D01*
X023854Y019746D01*
X023631Y019523D01*
X022637Y019523D01*
X022354Y019806D01*
X022354Y012776D01*
X019854Y010276D01*
X019854Y008980D01*
X020097Y009223D01*
X021091Y009223D01*
X021794Y008520D01*
X021794Y007526D01*
X021091Y006823D01*
X020097Y006823D01*
X019854Y007066D01*
X019854Y006576D01*
X019254Y005976D01*
X019254Y004986D01*
X018651Y004383D01*
X018787Y004383D01*
X019394Y004990D01*
X019394Y005980D01*
X020097Y006683D01*
X021091Y006683D01*
X021794Y005980D01*
X021794Y004986D01*
X021794Y005048D02*
X021934Y005048D01*
X021934Y005247D02*
X021794Y005247D01*
X021794Y005445D02*
X021934Y005445D01*
X021934Y005644D02*
X021794Y005644D01*
X021794Y005842D02*
X021934Y005842D01*
X021995Y006041D02*
X021733Y006041D01*
X021535Y006239D02*
X022193Y006239D01*
X022392Y006438D02*
X021336Y006438D01*
X021138Y006636D02*
X022590Y006636D01*
X022625Y006835D02*
X021103Y006835D01*
X021302Y007033D02*
X022426Y007033D01*
X022228Y007232D02*
X021500Y007232D01*
X021699Y007430D02*
X022029Y007430D01*
X021934Y007629D02*
X021794Y007629D01*
X021794Y007827D02*
X021934Y007827D01*
X021934Y008026D02*
X021794Y008026D01*
X021794Y008224D02*
X021934Y008224D01*
X021934Y008423D02*
X021794Y008423D01*
X021693Y008621D02*
X022035Y008621D01*
X022234Y008820D02*
X021494Y008820D01*
X021296Y009018D02*
X022432Y009018D01*
X022631Y009217D02*
X021097Y009217D01*
X020091Y009217D02*
X019854Y009217D01*
X019854Y009415D02*
X023854Y009415D01*
X023854Y009217D02*
X023637Y009217D01*
X023836Y009018D02*
X023854Y009018D01*
X023854Y009614D02*
X019854Y009614D01*
X019854Y009812D02*
X023854Y009812D01*
X023854Y010011D02*
X019854Y010011D01*
X019854Y010209D02*
X023854Y010209D01*
X023854Y010408D02*
X019986Y010408D01*
X020185Y010606D02*
X023854Y010606D01*
X023854Y010805D02*
X020383Y010805D01*
X020582Y011003D02*
X023854Y011003D01*
X023854Y011202D02*
X020780Y011202D01*
X020979Y011400D02*
X023854Y011400D01*
X023854Y011599D02*
X021177Y011599D01*
X021376Y011797D02*
X023854Y011797D01*
X023854Y011996D02*
X021574Y011996D01*
X021773Y012194D02*
X023854Y012194D01*
X023854Y012393D02*
X021971Y012393D01*
X022170Y012591D02*
X023854Y012591D01*
X023854Y012790D02*
X022354Y012790D01*
X022354Y012988D02*
X023854Y012988D01*
X023854Y013187D02*
X022354Y013187D01*
X022354Y013385D02*
X023854Y013385D01*
X023854Y013584D02*
X022354Y013584D01*
X022354Y013782D02*
X023854Y013782D01*
X023854Y013981D02*
X022354Y013981D01*
X022354Y014179D02*
X023854Y014179D01*
X023854Y014378D02*
X022354Y014378D01*
X022354Y014576D02*
X023854Y014576D01*
X023854Y014775D02*
X022354Y014775D01*
X022354Y014973D02*
X023854Y014973D01*
X023854Y015172D02*
X022354Y015172D01*
X022354Y015370D02*
X023854Y015370D01*
X023854Y015569D02*
X022354Y015569D01*
X022354Y015767D02*
X023854Y015767D01*
X023854Y015966D02*
X022354Y015966D01*
X022354Y016164D02*
X023854Y016164D01*
X023854Y016363D02*
X022354Y016363D01*
X022354Y016561D02*
X023854Y016561D01*
X023854Y016760D02*
X022354Y016760D01*
X022354Y016958D02*
X023854Y016958D01*
X023854Y017157D02*
X022354Y017157D01*
X022354Y017355D02*
X023854Y017355D01*
X023854Y017554D02*
X022354Y017554D01*
X022354Y017752D02*
X023854Y017752D01*
X023854Y017951D02*
X022354Y017951D01*
X022354Y018149D02*
X023854Y018149D01*
X023854Y018348D02*
X022354Y018348D01*
X022354Y018546D02*
X023854Y018546D01*
X023854Y018745D02*
X022354Y018745D01*
X022354Y018943D02*
X023854Y018943D01*
X023854Y019142D02*
X022354Y019142D01*
X022354Y019340D02*
X023854Y019340D01*
X023854Y019539D02*
X023647Y019539D01*
X023846Y019737D02*
X023854Y019737D01*
X024854Y019737D02*
X024962Y019737D01*
X024854Y019539D02*
X025161Y019539D01*
X024854Y019340D02*
X028954Y019340D01*
X028954Y019142D02*
X024854Y019142D01*
X024854Y018943D02*
X028954Y018943D01*
X028954Y018745D02*
X024854Y018745D01*
X024854Y018546D02*
X028954Y018546D01*
X028954Y018348D02*
X024854Y018348D01*
X024854Y018149D02*
X028954Y018149D01*
X028979Y017951D02*
X024854Y017951D01*
X024854Y017752D02*
X029177Y017752D01*
X029376Y017554D02*
X024854Y017554D01*
X024854Y017355D02*
X029574Y017355D01*
X029773Y017157D02*
X024854Y017157D01*
X024854Y016958D02*
X029971Y016958D01*
X030170Y016760D02*
X024854Y016760D01*
X024854Y016561D02*
X030254Y016561D01*
X030254Y016363D02*
X024854Y016363D01*
X024854Y016164D02*
X030254Y016164D01*
X030254Y015966D02*
X024854Y015966D01*
X024854Y015767D02*
X030254Y015767D01*
X030254Y015569D02*
X024854Y015569D01*
X024854Y015370D02*
X030254Y015370D01*
X030254Y015172D02*
X024854Y015172D01*
X024854Y014973D02*
X030254Y014973D01*
X030254Y014775D02*
X024854Y014775D01*
X024854Y014576D02*
X030254Y014576D01*
X030254Y014378D02*
X024854Y014378D01*
X024854Y014179D02*
X030254Y014179D01*
X030254Y013981D02*
X024854Y013981D01*
X024854Y013782D02*
X030254Y013782D01*
X030254Y013584D02*
X024854Y013584D01*
X024854Y013385D02*
X030254Y013385D01*
X030254Y013187D02*
X024854Y013187D01*
X024854Y012988D02*
X030254Y012988D01*
X030254Y012790D02*
X024854Y012790D01*
X024854Y012591D02*
X030254Y012591D01*
X030254Y012393D02*
X024854Y012393D01*
X024854Y012194D02*
X030254Y012194D01*
X030254Y011996D02*
X024854Y011996D01*
X024854Y011797D02*
X030254Y011797D01*
X030254Y011599D02*
X024854Y011599D01*
X024854Y011400D02*
X030254Y011400D01*
X030254Y011202D02*
X024854Y011202D01*
X024854Y011003D02*
X030254Y011003D01*
X030254Y010805D02*
X024854Y010805D01*
X024854Y010606D02*
X030254Y010606D01*
X030254Y010408D02*
X024854Y010408D01*
X024854Y010209D02*
X030254Y010209D01*
X030254Y010011D02*
X024854Y010011D01*
X024854Y009812D02*
X030254Y009812D01*
X030254Y009614D02*
X024854Y009614D01*
X024854Y009415D02*
X030254Y009415D01*
X030251Y009217D02*
X028717Y009217D01*
X028711Y009223D02*
X027717Y009223D01*
X027014Y008520D01*
X027014Y007526D01*
X027717Y006823D01*
X028711Y006823D01*
X029414Y007526D01*
X029414Y008520D01*
X028711Y009223D01*
X028916Y009018D02*
X030052Y009018D01*
X029854Y008820D02*
X029114Y008820D01*
X029313Y008621D02*
X029655Y008621D01*
X029554Y008423D02*
X029414Y008423D01*
X029414Y008224D02*
X029554Y008224D01*
X029554Y008026D02*
X029414Y008026D01*
X029414Y007827D02*
X029554Y007827D01*
X029554Y007629D02*
X029414Y007629D01*
X029319Y007430D02*
X029649Y007430D01*
X029848Y007232D02*
X029120Y007232D01*
X028922Y007033D02*
X030046Y007033D01*
X030245Y006835D02*
X028723Y006835D01*
X028711Y006683D02*
X027717Y006683D01*
X027014Y005980D01*
X027014Y004986D01*
X027717Y004283D01*
X028711Y004283D01*
X029414Y004986D01*
X029414Y005980D01*
X028711Y006683D01*
X028758Y006636D02*
X030210Y006636D01*
X030012Y006438D02*
X028956Y006438D01*
X029155Y006239D02*
X029813Y006239D01*
X029615Y006041D02*
X029353Y006041D01*
X029414Y005842D02*
X029554Y005842D01*
X029554Y005644D02*
X029414Y005644D01*
X029414Y005445D02*
X029554Y005445D01*
X029554Y005247D02*
X029414Y005247D01*
X029414Y005048D02*
X029554Y005048D01*
X029690Y004850D02*
X029278Y004850D01*
X029080Y004651D02*
X029888Y004651D01*
X030087Y004453D02*
X028881Y004453D01*
X027547Y004453D02*
X026341Y004453D01*
X026540Y004651D02*
X027348Y004651D01*
X027150Y004850D02*
X026738Y004850D01*
X026874Y005048D02*
X027014Y005048D01*
X027014Y005247D02*
X026874Y005247D01*
X026874Y005445D02*
X027014Y005445D01*
X027014Y005644D02*
X026874Y005644D01*
X026874Y005842D02*
X027014Y005842D01*
X027075Y006041D02*
X026813Y006041D01*
X026615Y006239D02*
X027273Y006239D01*
X027472Y006438D02*
X026416Y006438D01*
X026218Y006636D02*
X027670Y006636D01*
X027705Y006835D02*
X026183Y006835D01*
X026382Y007033D02*
X027506Y007033D01*
X027308Y007232D02*
X026580Y007232D01*
X026779Y007430D02*
X027109Y007430D01*
X027014Y007629D02*
X026874Y007629D01*
X026874Y007827D02*
X027014Y007827D01*
X027014Y008026D02*
X026874Y008026D01*
X026874Y008224D02*
X027014Y008224D01*
X027014Y008423D02*
X026874Y008423D01*
X026773Y008621D02*
X027115Y008621D01*
X027314Y008820D02*
X026574Y008820D01*
X026376Y009018D02*
X027512Y009018D01*
X027711Y009217D02*
X026177Y009217D01*
X025171Y009217D02*
X024854Y009217D01*
X024854Y009018D02*
X024972Y009018D01*
X024966Y007033D02*
X024854Y007033D01*
X024854Y006835D02*
X025165Y006835D01*
X025130Y006636D02*
X024854Y006636D01*
X024854Y006438D02*
X024932Y006438D01*
X023854Y006636D02*
X023678Y006636D01*
X023643Y006835D02*
X023854Y006835D01*
X023842Y007033D02*
X023854Y007033D01*
X024354Y004583D02*
X023054Y003283D01*
X014554Y003283D01*
X014254Y004583D02*
X014254Y021583D01*
X015514Y022843D01*
X015514Y023263D01*
X015441Y022063D02*
X016011Y022063D01*
X016254Y022306D01*
X016254Y022170D01*
X016007Y021923D01*
X015301Y021923D01*
X015441Y022063D01*
X016068Y022119D02*
X016203Y022119D01*
X016754Y021963D02*
X015514Y020723D01*
X014754Y019786D02*
X015017Y019523D01*
X016011Y019523D01*
X016714Y020226D01*
X016714Y021216D01*
X017254Y021756D01*
X017254Y022366D01*
X017557Y022063D01*
X018551Y022063D01*
X019254Y022766D01*
X019254Y023756D01*
X019681Y024183D01*
X019817Y024183D01*
X019394Y023760D01*
X019394Y022770D01*
X019147Y022523D01*
X018854Y022230D01*
X018854Y021620D01*
X018551Y021923D01*
X017557Y021923D01*
X016854Y021220D01*
X016854Y020226D01*
X017557Y019523D01*
X018551Y019523D01*
X018854Y019826D01*
X018854Y013490D01*
X016547Y011183D01*
X016254Y010890D01*
X016254Y008980D01*
X016011Y009223D01*
X015017Y009223D01*
X014754Y008960D01*
X014754Y019786D01*
X014754Y019737D02*
X014802Y019737D01*
X014754Y019539D02*
X015001Y019539D01*
X014754Y019340D02*
X018854Y019340D01*
X018854Y019142D02*
X014754Y019142D01*
X014754Y018943D02*
X018854Y018943D01*
X018854Y018745D02*
X014754Y018745D01*
X014754Y018546D02*
X018854Y018546D01*
X018854Y018348D02*
X014754Y018348D01*
X014754Y018149D02*
X018854Y018149D01*
X018854Y017951D02*
X014754Y017951D01*
X014754Y017752D02*
X018854Y017752D01*
X018854Y017554D02*
X014754Y017554D01*
X014754Y017355D02*
X018854Y017355D01*
X018854Y017157D02*
X014754Y017157D01*
X014754Y016958D02*
X018854Y016958D01*
X018854Y016760D02*
X014754Y016760D01*
X014754Y016561D02*
X018854Y016561D01*
X018854Y016363D02*
X014754Y016363D01*
X014754Y016164D02*
X018854Y016164D01*
X018854Y015966D02*
X014754Y015966D01*
X014754Y015767D02*
X018854Y015767D01*
X018854Y015569D02*
X014754Y015569D01*
X014754Y015370D02*
X018854Y015370D01*
X018854Y015172D02*
X014754Y015172D01*
X014754Y014973D02*
X018854Y014973D01*
X018854Y014775D02*
X014754Y014775D01*
X014754Y014576D02*
X018854Y014576D01*
X018854Y014378D02*
X014754Y014378D01*
X014754Y014179D02*
X018854Y014179D01*
X018854Y013981D02*
X014754Y013981D01*
X014754Y013782D02*
X018854Y013782D01*
X018854Y013584D02*
X014754Y013584D01*
X014754Y013385D02*
X018749Y013385D01*
X018551Y013187D02*
X014754Y013187D01*
X014754Y012988D02*
X018352Y012988D01*
X018154Y012790D02*
X014754Y012790D01*
X014754Y012591D02*
X017955Y012591D01*
X017757Y012393D02*
X014754Y012393D01*
X014754Y012194D02*
X017558Y012194D01*
X017360Y011996D02*
X014754Y011996D01*
X014754Y011797D02*
X017161Y011797D01*
X016963Y011599D02*
X014754Y011599D01*
X014754Y011400D02*
X016764Y011400D01*
X016566Y011202D02*
X014754Y011202D01*
X014754Y011003D02*
X016367Y011003D01*
X016254Y010805D02*
X014754Y010805D01*
X014754Y010606D02*
X016254Y010606D01*
X016254Y010408D02*
X014754Y010408D01*
X014754Y010209D02*
X016254Y010209D01*
X016254Y010011D02*
X014754Y010011D01*
X014754Y009812D02*
X016254Y009812D01*
X016254Y009614D02*
X014754Y009614D01*
X014754Y009415D02*
X016254Y009415D01*
X016254Y009217D02*
X016017Y009217D01*
X016216Y009018D02*
X016254Y009018D01*
X017254Y009018D02*
X017352Y009018D01*
X017254Y008920D02*
X017254Y010476D01*
X019854Y013076D01*
X019854Y019766D01*
X020097Y019523D01*
X021091Y019523D01*
X021354Y019786D01*
X021354Y013190D01*
X019147Y010983D01*
X018854Y010690D01*
X018854Y008920D01*
X018551Y009223D01*
X017557Y009223D01*
X017254Y008920D01*
X017254Y009217D02*
X017551Y009217D01*
X017254Y009415D02*
X018854Y009415D01*
X018854Y009217D02*
X018557Y009217D01*
X018756Y009018D02*
X018854Y009018D01*
X018854Y009614D02*
X017254Y009614D01*
X017254Y009812D02*
X018854Y009812D01*
X018854Y010011D02*
X017254Y010011D01*
X017254Y010209D02*
X018854Y010209D01*
X018854Y010408D02*
X017254Y010408D01*
X017385Y010606D02*
X018854Y010606D01*
X018969Y010805D02*
X017583Y010805D01*
X017782Y011003D02*
X019167Y011003D01*
X019366Y011202D02*
X017980Y011202D01*
X018179Y011400D02*
X019564Y011400D01*
X019763Y011599D02*
X018377Y011599D01*
X018576Y011797D02*
X019961Y011797D01*
X020160Y011996D02*
X018774Y011996D01*
X018973Y012194D02*
X020358Y012194D01*
X020557Y012393D02*
X019171Y012393D01*
X019370Y012591D02*
X020755Y012591D01*
X020954Y012790D02*
X019568Y012790D01*
X019767Y012988D02*
X021152Y012988D01*
X021351Y013187D02*
X019854Y013187D01*
X019854Y013385D02*
X021354Y013385D01*
X021354Y013584D02*
X019854Y013584D01*
X019854Y013782D02*
X021354Y013782D01*
X021354Y013981D02*
X019854Y013981D01*
X019854Y014179D02*
X021354Y014179D01*
X021354Y014378D02*
X019854Y014378D01*
X019854Y014576D02*
X021354Y014576D01*
X021354Y014775D02*
X019854Y014775D01*
X019854Y014973D02*
X021354Y014973D01*
X021354Y015172D02*
X019854Y015172D01*
X019854Y015370D02*
X021354Y015370D01*
X021354Y015569D02*
X019854Y015569D01*
X019854Y015767D02*
X021354Y015767D01*
X021354Y015966D02*
X019854Y015966D01*
X019854Y016164D02*
X021354Y016164D01*
X021354Y016363D02*
X019854Y016363D01*
X019854Y016561D02*
X021354Y016561D01*
X021354Y016760D02*
X019854Y016760D01*
X019854Y016958D02*
X021354Y016958D01*
X021354Y017157D02*
X019854Y017157D01*
X019854Y017355D02*
X021354Y017355D01*
X021354Y017554D02*
X019854Y017554D01*
X019854Y017752D02*
X021354Y017752D01*
X021354Y017951D02*
X019854Y017951D01*
X019854Y018149D02*
X021354Y018149D01*
X021354Y018348D02*
X019854Y018348D01*
X019854Y018546D02*
X021354Y018546D01*
X021354Y018745D02*
X019854Y018745D01*
X019854Y018943D02*
X021354Y018943D01*
X021354Y019142D02*
X019854Y019142D01*
X019854Y019340D02*
X021354Y019340D01*
X021354Y019539D02*
X021107Y019539D01*
X021306Y019737D02*
X021354Y019737D01*
X022354Y019737D02*
X022422Y019737D01*
X022354Y019539D02*
X022621Y019539D01*
X022354Y021640D02*
X022354Y022346D01*
X022637Y022063D01*
X023627Y022063D01*
X023854Y021836D01*
X023854Y021700D01*
X023631Y021923D01*
X022637Y021923D01*
X022354Y021640D01*
X022354Y021722D02*
X022436Y021722D01*
X022354Y021921D02*
X022635Y021921D01*
X022580Y022119D02*
X022354Y022119D01*
X022354Y022318D02*
X022382Y022318D01*
X023134Y023263D02*
X024354Y022043D01*
X024354Y004583D01*
X024733Y004254D02*
X058954Y004254D01*
X058954Y004056D02*
X024534Y004056D01*
X024336Y003857D02*
X058954Y003857D01*
X058954Y003659D02*
X024137Y003659D01*
X023939Y003460D02*
X058954Y003460D01*
X058954Y003262D02*
X023740Y003262D01*
X023542Y003063D02*
X058954Y003063D01*
X058954Y002865D02*
X023343Y002865D01*
X022921Y003857D02*
X019676Y003857D01*
X019874Y004056D02*
X023120Y004056D01*
X023318Y004254D02*
X020073Y004254D01*
X019394Y005048D02*
X019254Y005048D01*
X019254Y004850D02*
X019118Y004850D01*
X019055Y004651D02*
X018920Y004651D01*
X018857Y004453D02*
X018721Y004453D01*
X019254Y005247D02*
X019394Y005247D01*
X019394Y005445D02*
X019254Y005445D01*
X019254Y005644D02*
X019394Y005644D01*
X019394Y005842D02*
X019254Y005842D01*
X019319Y006041D02*
X019455Y006041D01*
X019518Y006239D02*
X019653Y006239D01*
X019716Y006438D02*
X019852Y006438D01*
X019854Y006636D02*
X020050Y006636D01*
X020085Y006835D02*
X019854Y006835D01*
X019854Y007033D02*
X019886Y007033D01*
X019354Y006783D02*
X018054Y005483D01*
X017188Y004651D02*
X016380Y004651D01*
X016578Y004850D02*
X016990Y004850D01*
X016854Y004986D02*
X016854Y005980D01*
X017557Y006683D01*
X018547Y006683D01*
X018854Y006990D01*
X018854Y007126D01*
X018551Y006823D01*
X017557Y006823D01*
X017254Y007126D01*
X017254Y006516D01*
X016714Y005976D01*
X016714Y004986D01*
X016111Y004383D01*
X017457Y004383D01*
X016854Y004986D01*
X016854Y005048D02*
X016714Y005048D01*
X016714Y005247D02*
X016854Y005247D01*
X016854Y005445D02*
X016714Y005445D01*
X016714Y005644D02*
X016854Y005644D01*
X016854Y005842D02*
X016714Y005842D01*
X016779Y006041D02*
X016915Y006041D01*
X016978Y006239D02*
X017113Y006239D01*
X017176Y006438D02*
X017312Y006438D01*
X017254Y006636D02*
X017510Y006636D01*
X017545Y006835D02*
X017254Y006835D01*
X017254Y007033D02*
X017346Y007033D01*
X016754Y006723D02*
X015514Y005483D01*
X014754Y006420D02*
X014754Y007086D01*
X015017Y006823D01*
X016011Y006823D01*
X016254Y007066D01*
X016254Y006930D01*
X016007Y006683D01*
X015017Y006683D01*
X014754Y006420D01*
X014754Y006438D02*
X014772Y006438D01*
X014754Y006636D02*
X014970Y006636D01*
X015005Y006835D02*
X014754Y006835D01*
X014754Y007033D02*
X014806Y007033D01*
X016023Y006835D02*
X016159Y006835D01*
X016222Y007033D02*
X016254Y007033D01*
X016754Y006723D02*
X016754Y010683D01*
X019354Y013283D01*
X019354Y022023D01*
X020594Y023263D01*
X021354Y022326D02*
X021091Y022063D01*
X020101Y022063D01*
X019854Y021816D01*
X019854Y021680D01*
X020097Y021923D01*
X021091Y021923D01*
X021354Y021660D01*
X021354Y022326D01*
X021354Y022318D02*
X021346Y022318D01*
X021354Y022119D02*
X021148Y022119D01*
X021093Y021921D02*
X021354Y021921D01*
X021354Y021722D02*
X021292Y021722D01*
X020095Y021921D02*
X019959Y021921D01*
X019896Y021722D02*
X019854Y021722D01*
X018854Y021722D02*
X018752Y021722D01*
X018854Y021921D02*
X018553Y021921D01*
X018608Y022119D02*
X018854Y022119D01*
X018806Y022318D02*
X018942Y022318D01*
X019005Y022516D02*
X019140Y022516D01*
X019203Y022715D02*
X019339Y022715D01*
X019394Y022913D02*
X019254Y022913D01*
X019254Y023112D02*
X019394Y023112D01*
X019394Y023310D02*
X019254Y023310D01*
X019254Y023509D02*
X019394Y023509D01*
X019394Y023707D02*
X019254Y023707D01*
X019404Y023906D02*
X019540Y023906D01*
X019603Y024104D02*
X019738Y024104D01*
X019474Y024683D02*
X021154Y024683D01*
X021854Y023983D01*
X021854Y012983D01*
X019354Y010483D01*
X019354Y006783D01*
X018854Y007033D02*
X018762Y007033D01*
X018699Y006835D02*
X018563Y006835D01*
X019854Y009018D02*
X019892Y009018D01*
X021261Y004453D02*
X022467Y004453D01*
X024854Y004453D02*
X025007Y004453D01*
X030754Y008023D02*
X030754Y016883D01*
X029454Y018183D01*
X029454Y024383D01*
X028554Y025283D01*
X017754Y025283D01*
X016754Y024283D01*
X016754Y021963D01*
X017254Y021921D02*
X017555Y021921D01*
X017500Y022119D02*
X017254Y022119D01*
X017254Y022318D02*
X017302Y022318D01*
X017356Y021722D02*
X017221Y021722D01*
X017158Y021524D02*
X017022Y021524D01*
X016959Y021325D02*
X016824Y021325D01*
X016854Y021127D02*
X016714Y021127D01*
X016714Y020928D02*
X016854Y020928D01*
X016854Y020730D02*
X016714Y020730D01*
X016714Y020531D02*
X016854Y020531D01*
X016854Y020333D02*
X016714Y020333D01*
X016623Y020134D02*
X016945Y020134D01*
X017144Y019936D02*
X016424Y019936D01*
X016226Y019737D02*
X017342Y019737D01*
X017541Y019539D02*
X016027Y019539D01*
X018567Y019539D02*
X018854Y019539D01*
X018854Y019737D02*
X018766Y019737D01*
X019854Y019737D02*
X019882Y019737D01*
X019854Y019539D02*
X020081Y019539D01*
X018054Y023263D02*
X019474Y024683D01*
X018867Y024783D02*
X018547Y024463D01*
X017641Y024463D01*
X017961Y024783D01*
X018867Y024783D01*
X018784Y024700D02*
X017878Y024700D01*
X017680Y024501D02*
X018585Y024501D01*
X017147Y025383D02*
X016547Y024783D01*
X016254Y024490D01*
X016254Y024220D01*
X016011Y024463D01*
X015041Y024463D01*
X015961Y025383D01*
X017147Y025383D01*
X017059Y025295D02*
X015874Y025295D01*
X015675Y025097D02*
X016861Y025097D01*
X016662Y024898D02*
X015477Y024898D01*
X015278Y024700D02*
X016464Y024700D01*
X016265Y024501D02*
X015080Y024501D01*
X014658Y025494D02*
X000754Y025494D01*
X000754Y025692D02*
X014856Y025692D01*
X015055Y025891D02*
X000754Y025891D01*
X000754Y026089D02*
X015253Y026089D01*
X015452Y026288D02*
X000754Y026288D01*
X000754Y025295D02*
X014459Y025295D01*
X014261Y025097D02*
X000754Y025097D01*
X000754Y024898D02*
X014062Y024898D01*
X013864Y024700D02*
X000754Y024700D01*
X000754Y024501D02*
X013754Y024501D01*
X013754Y024303D02*
X013631Y024303D01*
X016171Y024303D02*
X016254Y024303D01*
X021844Y024700D02*
X028430Y024700D01*
X028628Y024501D02*
X022043Y024501D01*
X022241Y024303D02*
X022477Y024303D01*
X023791Y024303D02*
X025017Y024303D01*
X025177Y024463D02*
X024474Y023760D01*
X024474Y022766D01*
X025177Y022063D01*
X026171Y022063D01*
X026874Y022766D01*
X026874Y023760D01*
X026171Y024463D01*
X025177Y024463D01*
X024818Y024104D02*
X023990Y024104D01*
X024188Y023906D02*
X024620Y023906D01*
X024474Y023707D02*
X024334Y023707D01*
X024334Y023509D02*
X024474Y023509D01*
X024474Y023310D02*
X024334Y023310D01*
X024334Y023112D02*
X024474Y023112D01*
X024474Y022913D02*
X024334Y022913D01*
X024389Y022715D02*
X024525Y022715D01*
X024588Y022516D02*
X024723Y022516D01*
X024786Y022318D02*
X024922Y022318D01*
X024854Y022119D02*
X025120Y022119D01*
X025175Y021921D02*
X024854Y021921D01*
X024854Y021722D02*
X024976Y021722D01*
X023854Y021722D02*
X023832Y021722D01*
X023769Y021921D02*
X023633Y021921D01*
X026173Y021921D02*
X027715Y021921D01*
X027660Y022119D02*
X026228Y022119D01*
X026426Y022318D02*
X027462Y022318D01*
X027263Y022516D02*
X026625Y022516D01*
X026823Y022715D02*
X027065Y022715D01*
X027014Y022913D02*
X026874Y022913D01*
X026874Y023112D02*
X027014Y023112D01*
X027014Y023310D02*
X026874Y023310D01*
X026874Y023509D02*
X027014Y023509D01*
X027014Y023707D02*
X026874Y023707D01*
X026728Y023906D02*
X027160Y023906D01*
X027358Y024104D02*
X026530Y024104D01*
X026331Y024303D02*
X027557Y024303D01*
X029161Y025383D02*
X030347Y025383D01*
X031554Y024176D01*
X031554Y024160D01*
X031251Y024463D01*
X030257Y024463D01*
X029954Y024160D01*
X029954Y024590D01*
X029161Y025383D01*
X029249Y025295D02*
X030434Y025295D01*
X030633Y025097D02*
X029447Y025097D01*
X029646Y024898D02*
X030831Y024898D01*
X031030Y024700D02*
X029844Y024700D01*
X029954Y024501D02*
X031228Y024501D01*
X031411Y024303D02*
X031427Y024303D01*
X032554Y024303D02*
X032637Y024303D01*
X032554Y022119D02*
X032740Y022119D01*
X032554Y021921D02*
X035335Y021921D01*
X035136Y021722D02*
X033779Y021722D01*
X033978Y021524D02*
X034938Y021524D01*
X034739Y021325D02*
X034176Y021325D01*
X034344Y021127D02*
X034634Y021127D01*
X034634Y020928D02*
X034344Y020928D01*
X034634Y020730D02*
X033394Y020730D01*
X033394Y020928D02*
X033194Y020928D01*
X033194Y021127D02*
X033394Y021127D01*
X033394Y021325D02*
X033194Y021325D01*
X033194Y021524D02*
X033394Y021524D01*
X033394Y021722D02*
X033194Y021722D01*
X032809Y021722D02*
X032554Y021722D01*
X032554Y021524D02*
X032610Y021524D01*
X033194Y020531D02*
X033394Y020531D01*
X033394Y020333D02*
X033194Y020333D01*
X033194Y020134D02*
X033394Y020134D01*
X033394Y019936D02*
X033194Y019936D01*
X033194Y019737D02*
X033394Y019737D01*
X033793Y019737D02*
X035122Y019737D01*
X034924Y019936D02*
X033992Y019936D01*
X034190Y020134D02*
X034725Y020134D01*
X034634Y020333D02*
X034344Y020333D01*
X034344Y020531D02*
X034634Y020531D01*
X031554Y021620D02*
X031251Y021923D01*
X030257Y021923D01*
X029954Y021620D01*
X029954Y022366D01*
X030257Y022063D01*
X031251Y022063D01*
X031554Y022366D01*
X031554Y021620D01*
X031554Y021722D02*
X031452Y021722D01*
X031554Y021921D02*
X031253Y021921D01*
X031308Y022119D02*
X031554Y022119D01*
X031554Y022318D02*
X031506Y022318D01*
X030255Y021921D02*
X029954Y021921D01*
X029954Y022119D02*
X030200Y022119D01*
X030002Y022318D02*
X029954Y022318D01*
X029954Y021722D02*
X030056Y021722D01*
X028954Y021722D02*
X028912Y021722D01*
X028954Y021921D02*
X028713Y021921D01*
X028768Y022119D02*
X028954Y022119D01*
X027516Y021722D02*
X026372Y021722D01*
X026570Y021524D02*
X027318Y021524D01*
X027119Y021325D02*
X026769Y021325D01*
X026874Y021127D02*
X027014Y021127D01*
X027014Y020928D02*
X026874Y020928D01*
X026874Y020730D02*
X027014Y020730D01*
X027014Y020531D02*
X026874Y020531D01*
X026874Y020333D02*
X027014Y020333D01*
X027105Y020134D02*
X026783Y020134D01*
X026584Y019936D02*
X027304Y019936D01*
X027502Y019737D02*
X026386Y019737D01*
X026187Y019539D02*
X027701Y019539D01*
X028727Y019539D02*
X028954Y019539D01*
X028954Y019737D02*
X028926Y019737D01*
X029954Y019737D02*
X030042Y019737D01*
X029954Y019539D02*
X030241Y019539D01*
X033294Y016943D02*
X033294Y008023D01*
X036378Y006636D02*
X040370Y006636D01*
X040417Y006683D02*
X039714Y005980D01*
X039714Y004986D01*
X040417Y004283D01*
X041411Y004283D01*
X042114Y004986D01*
X042114Y005980D01*
X041411Y006683D01*
X040417Y006683D01*
X040172Y006438D02*
X038904Y006438D01*
X038809Y006533D02*
X038474Y006533D01*
X038474Y005583D01*
X038274Y005583D01*
X038274Y006533D01*
X037939Y006533D01*
X037324Y005918D01*
X037324Y005583D01*
X038274Y005583D01*
X038274Y005383D01*
X037324Y005383D01*
X037324Y005048D01*
X037034Y005048D01*
X037034Y005247D02*
X037324Y005247D01*
X037324Y005048D02*
X037939Y004433D01*
X038274Y004433D01*
X038274Y005383D01*
X038474Y005383D01*
X038474Y005583D01*
X039424Y005583D01*
X039424Y005918D01*
X038809Y006533D01*
X038474Y006438D02*
X038274Y006438D01*
X038274Y006239D02*
X038474Y006239D01*
X038474Y006041D02*
X038274Y006041D01*
X038274Y005842D02*
X038474Y005842D01*
X038474Y005644D02*
X038274Y005644D01*
X038274Y005445D02*
X037034Y005445D01*
X037034Y005644D02*
X037324Y005644D01*
X037324Y005842D02*
X037034Y005842D01*
X036973Y006041D02*
X037447Y006041D01*
X037646Y006239D02*
X036775Y006239D01*
X036576Y006438D02*
X037844Y006438D01*
X038474Y005445D02*
X039714Y005445D01*
X039714Y005247D02*
X039424Y005247D01*
X039424Y005383D02*
X039424Y005048D01*
X039714Y005048D01*
X039850Y004850D02*
X039226Y004850D01*
X039424Y005048D02*
X038809Y004433D01*
X038474Y004433D01*
X038474Y005383D01*
X039424Y005383D01*
X039424Y005644D02*
X039714Y005644D01*
X039714Y005842D02*
X039424Y005842D01*
X039301Y006041D02*
X039775Y006041D01*
X039973Y006239D02*
X039102Y006239D01*
X038474Y005247D02*
X038274Y005247D01*
X038274Y005048D02*
X038474Y005048D01*
X038474Y004850D02*
X038274Y004850D01*
X038274Y004651D02*
X038474Y004651D01*
X038474Y004453D02*
X038274Y004453D01*
X037919Y004453D02*
X036501Y004453D01*
X036700Y004651D02*
X037721Y004651D01*
X037522Y004850D02*
X036898Y004850D01*
X038829Y004453D02*
X040247Y004453D01*
X040048Y004651D02*
X039027Y004651D01*
X041581Y004453D02*
X042787Y004453D01*
X042957Y004283D02*
X042254Y004986D01*
X042254Y005980D01*
X042957Y006683D01*
X043951Y006683D01*
X044654Y005980D01*
X044654Y004986D01*
X043951Y004283D01*
X042957Y004283D01*
X042588Y004651D02*
X041780Y004651D01*
X041978Y004850D02*
X042390Y004850D01*
X042254Y005048D02*
X042114Y005048D01*
X042114Y005247D02*
X042254Y005247D01*
X042254Y005445D02*
X042114Y005445D01*
X042114Y005644D02*
X042254Y005644D01*
X042254Y005842D02*
X042114Y005842D01*
X042053Y006041D02*
X042315Y006041D01*
X042513Y006239D02*
X041855Y006239D01*
X041656Y006438D02*
X042712Y006438D01*
X042910Y006636D02*
X041458Y006636D01*
X043998Y006636D02*
X045450Y006636D01*
X045252Y006438D02*
X044196Y006438D01*
X044395Y006239D02*
X045053Y006239D01*
X044855Y006041D02*
X044593Y006041D01*
X044654Y005842D02*
X044794Y005842D01*
X044794Y005644D02*
X044654Y005644D01*
X044654Y005445D02*
X044794Y005445D01*
X044794Y005247D02*
X044654Y005247D01*
X044654Y005048D02*
X044794Y005048D01*
X044930Y004850D02*
X044518Y004850D01*
X044320Y004651D02*
X045128Y004651D01*
X045327Y004453D02*
X044121Y004453D01*
X046661Y004453D02*
X058954Y004453D01*
X058954Y004651D02*
X046860Y004651D01*
X047058Y004850D02*
X058954Y004850D01*
X058954Y005048D02*
X047194Y005048D01*
X047194Y005247D02*
X058954Y005247D01*
X058954Y005445D02*
X047194Y005445D01*
X049190Y002644D02*
X049075Y002529D01*
X048984Y002393D01*
X048922Y002243D01*
X048894Y002102D01*
X050193Y002102D01*
X050193Y002828D01*
X049635Y002828D01*
X049476Y002797D01*
X049325Y002734D01*
X049190Y002644D01*
X049223Y002666D02*
X000754Y002666D01*
X000754Y002468D02*
X049034Y002468D01*
X048933Y002269D02*
X000754Y002269D01*
X000754Y002071D02*
X050193Y002071D01*
X050193Y002102D02*
X050193Y001902D01*
X050393Y001902D01*
X050393Y002102D01*
X051691Y002102D01*
X051663Y002243D01*
X051601Y002393D01*
X051511Y002529D01*
X051396Y002644D01*
X051260Y002734D01*
X051110Y002797D01*
X050950Y002828D01*
X050393Y002828D01*
X050393Y002102D01*
X050193Y002102D01*
X050193Y002269D02*
X050393Y002269D01*
X050393Y002071D02*
X056695Y002071D01*
X056695Y002102D02*
X056695Y001902D01*
X055397Y001902D01*
X055425Y001761D01*
X055487Y001611D01*
X055577Y001475D01*
X055692Y001360D01*
X055828Y001270D01*
X055978Y001208D01*
X056138Y001176D01*
X056695Y001176D01*
X056695Y001902D01*
X056895Y001902D01*
X056895Y001176D01*
X057453Y001176D01*
X057612Y001208D01*
X057763Y001270D01*
X057898Y001360D01*
X058013Y001475D01*
X058954Y001475D01*
X058954Y001277D02*
X057773Y001277D01*
X058013Y001475D02*
X058104Y001611D01*
X058166Y001761D01*
X058194Y001902D01*
X056895Y001902D01*
X056895Y002102D01*
X056695Y002102D01*
X055397Y002102D01*
X055425Y002243D01*
X055487Y002393D01*
X055577Y002529D01*
X055692Y002644D01*
X055828Y002734D01*
X055978Y002797D01*
X056138Y002828D01*
X056695Y002828D01*
X056695Y002102D01*
X056695Y002269D02*
X056895Y002269D01*
X056895Y002102D02*
X056895Y002828D01*
X057453Y002828D01*
X057612Y002797D01*
X057763Y002734D01*
X057898Y002644D01*
X058013Y002529D01*
X058104Y002393D01*
X058166Y002243D01*
X058194Y002102D01*
X056895Y002102D01*
X056895Y002071D02*
X058954Y002071D01*
X058954Y002269D02*
X058155Y002269D01*
X058054Y002468D02*
X058954Y002468D01*
X058954Y002666D02*
X057865Y002666D01*
X058188Y001872D02*
X058954Y001872D01*
X058954Y001674D02*
X058130Y001674D01*
X058954Y001078D02*
X000754Y001078D01*
X000754Y001277D02*
X049315Y001277D01*
X049325Y001270D02*
X049476Y001208D01*
X049635Y001176D01*
X050193Y001176D01*
X050193Y001902D01*
X048894Y001902D01*
X048922Y001761D01*
X048984Y001611D01*
X049075Y001475D01*
X000754Y001475D01*
X000754Y001674D02*
X048958Y001674D01*
X048900Y001872D02*
X000754Y001872D01*
X008438Y006636D02*
X009890Y006636D01*
X009692Y006438D02*
X008636Y006438D01*
X008835Y006239D02*
X009493Y006239D01*
X009295Y006041D02*
X009033Y006041D01*
X009094Y005842D02*
X009234Y005842D01*
X009234Y005644D02*
X009094Y005644D01*
X009094Y005445D02*
X009234Y005445D01*
X009234Y005247D02*
X009094Y005247D01*
X009094Y005048D02*
X009234Y005048D01*
X009370Y004850D02*
X008958Y004850D01*
X008760Y004651D02*
X009568Y004651D01*
X009767Y004453D02*
X008561Y004453D01*
X014754Y009018D02*
X014812Y009018D01*
X014754Y009217D02*
X015011Y009217D01*
X016181Y004453D02*
X017387Y004453D01*
X004372Y019539D02*
X000754Y019539D01*
X000754Y019737D02*
X004174Y019737D01*
X004154Y019936D02*
X000754Y019936D01*
X000754Y020134D02*
X004154Y020134D01*
X004154Y020333D02*
X000754Y020333D01*
X000754Y020531D02*
X004154Y020531D01*
X004154Y020730D02*
X000754Y020730D01*
X000754Y020928D02*
X004154Y020928D01*
X004154Y021127D02*
X000754Y021127D01*
X000754Y021325D02*
X004154Y021325D01*
X004154Y021524D02*
X000754Y021524D01*
X000754Y021722D02*
X004188Y021722D01*
X004386Y021921D02*
X000754Y021921D01*
X000754Y022119D02*
X004332Y022119D01*
X004154Y022318D02*
X000754Y022318D01*
X000754Y022516D02*
X004154Y022516D01*
X004154Y022715D02*
X000754Y022715D01*
X000754Y022913D02*
X004154Y022913D01*
X004154Y023112D02*
X000754Y023112D01*
X000754Y023310D02*
X004154Y023310D01*
X004154Y023509D02*
X000754Y023509D01*
X000754Y023707D02*
X004154Y023707D01*
X004154Y023906D02*
X000754Y023906D01*
X000754Y024104D02*
X004154Y024104D01*
X004228Y024303D02*
X000754Y024303D01*
X003689Y035419D02*
X015692Y035419D01*
X015644Y035617D02*
X003888Y035617D01*
X004029Y035816D02*
X015644Y035816D01*
X015645Y036014D02*
X004111Y036014D01*
X004193Y036213D02*
X015727Y036213D01*
X015810Y036411D02*
X004194Y036411D01*
X004194Y036610D02*
X015984Y036610D01*
X016208Y036808D02*
X004194Y036808D01*
X004194Y037007D02*
X026985Y037007D01*
X026963Y036985D02*
X026963Y036985D01*
X026869Y036891D01*
X026669Y036691D01*
X026669Y035076D01*
X026864Y034881D01*
X026963Y034782D01*
X027067Y034678D01*
X027262Y034483D01*
X028577Y034483D01*
X028840Y034746D01*
X028909Y034678D01*
X029104Y034483D01*
X030419Y034483D01*
X030712Y034777D01*
X030712Y035015D01*
X030945Y034782D01*
X031245Y034483D01*
X031960Y034483D01*
X032254Y034777D01*
X032554Y035076D01*
X032554Y035492D01*
X032260Y035786D01*
X031845Y035786D01*
X031655Y035596D01*
X031655Y036281D01*
X031661Y036281D01*
X031955Y036575D01*
X031955Y036990D01*
X031661Y037284D01*
X030646Y037284D01*
X030532Y037171D01*
X030419Y037284D01*
X029104Y037284D01*
X028903Y037084D01*
X028840Y037021D01*
X028577Y037284D01*
X027262Y037284D01*
X027062Y037084D01*
X026963Y036985D01*
X026786Y036808D02*
X017480Y036808D01*
X017704Y036610D02*
X026669Y036610D01*
X026669Y036411D02*
X017878Y036411D01*
X017961Y036213D02*
X026669Y036213D01*
X026669Y036014D02*
X018043Y036014D01*
X018044Y035816D02*
X026669Y035816D01*
X026669Y035617D02*
X018044Y035617D01*
X017996Y035419D02*
X026669Y035419D01*
X026669Y035220D02*
X017914Y035220D01*
X017790Y035022D02*
X026723Y035022D01*
X026922Y034823D02*
X017592Y034823D01*
X017208Y034625D02*
X027120Y034625D01*
X026963Y034782D02*
X026963Y034782D01*
X027672Y035492D02*
X027672Y036275D01*
X027678Y036281D01*
X027868Y036281D01*
X027868Y035486D01*
X027678Y035486D01*
X027672Y035492D01*
X027672Y035617D02*
X027868Y035617D01*
X027868Y035816D02*
X027672Y035816D01*
X027672Y036014D02*
X027868Y036014D01*
X027868Y036213D02*
X027672Y036213D01*
X027183Y037205D02*
X004194Y037205D01*
X004194Y037404D02*
X055494Y037404D01*
X055494Y037602D02*
X004194Y037602D01*
X004194Y037801D02*
X055494Y037801D01*
X055494Y037999D02*
X004194Y037999D01*
X004194Y038198D02*
X055494Y038198D01*
X055494Y038396D02*
X004194Y038396D01*
X004194Y038595D02*
X055494Y038595D01*
X055494Y038651D02*
X055700Y039147D01*
X056079Y039527D01*
X056575Y039733D01*
X057113Y039733D01*
X057609Y039527D01*
X057988Y039147D01*
X058194Y038651D01*
X058194Y036214D01*
X057988Y035718D01*
X057609Y035338D01*
X057113Y035133D01*
X056575Y035133D01*
X056079Y035338D01*
X055700Y035718D01*
X055494Y036214D01*
X055494Y038651D01*
X055553Y038793D02*
X004135Y038793D01*
X004053Y038992D02*
X055635Y038992D01*
X055742Y039190D02*
X003946Y039190D01*
X003747Y039389D02*
X055941Y039389D01*
X056224Y039587D02*
X003464Y039587D01*
X028656Y037205D02*
X029025Y037205D01*
X029519Y036281D02*
X029709Y036281D01*
X029709Y035486D01*
X029519Y035486D01*
X029514Y035492D01*
X029514Y036275D01*
X029519Y036281D01*
X029514Y036213D02*
X029709Y036213D01*
X029709Y036014D02*
X029514Y036014D01*
X029514Y035816D02*
X029709Y035816D01*
X029709Y035617D02*
X029514Y035617D01*
X028962Y034625D02*
X028719Y034625D01*
X030561Y034625D02*
X031103Y034625D01*
X030905Y034823D02*
X030712Y034823D01*
X031655Y035617D02*
X031676Y035617D01*
X031655Y035816D02*
X041644Y035816D01*
X041644Y036011D02*
X041644Y035534D01*
X041827Y035093D01*
X042164Y034755D01*
X042605Y034573D01*
X043083Y034573D01*
X043524Y034755D01*
X043861Y035093D01*
X044044Y035534D01*
X044044Y036011D01*
X043861Y036452D01*
X043524Y036790D01*
X043083Y036973D01*
X042605Y036973D01*
X042164Y036790D01*
X041827Y036452D01*
X041644Y036011D01*
X041645Y036014D02*
X031655Y036014D01*
X031655Y036213D02*
X041727Y036213D01*
X041810Y036411D02*
X031791Y036411D01*
X031955Y036610D02*
X041984Y036610D01*
X042208Y036808D02*
X031955Y036808D01*
X031938Y037007D02*
X055494Y037007D01*
X055494Y037205D02*
X031740Y037205D01*
X030567Y037205D02*
X030498Y037205D01*
X032429Y035617D02*
X041644Y035617D01*
X041692Y035419D02*
X032554Y035419D01*
X032554Y035220D02*
X041774Y035220D01*
X041898Y035022D02*
X032499Y035022D01*
X032301Y034823D02*
X042096Y034823D01*
X042480Y034625D02*
X032102Y034625D01*
X030097Y024303D02*
X029954Y024303D01*
X043208Y034625D02*
X058954Y034625D01*
X058954Y034823D02*
X043592Y034823D01*
X043790Y035022D02*
X058954Y035022D01*
X058954Y035220D02*
X057324Y035220D01*
X057689Y035419D02*
X058954Y035419D01*
X058954Y035617D02*
X057888Y035617D01*
X058029Y035816D02*
X058954Y035816D01*
X058954Y036014D02*
X058111Y036014D01*
X058193Y036213D02*
X058954Y036213D01*
X058954Y036411D02*
X058194Y036411D01*
X058194Y036610D02*
X058954Y036610D01*
X058954Y036808D02*
X058194Y036808D01*
X058194Y037007D02*
X058954Y037007D01*
X058954Y037205D02*
X058194Y037205D01*
X058194Y037404D02*
X058954Y037404D01*
X058954Y037602D02*
X058194Y037602D01*
X058194Y037801D02*
X058954Y037801D01*
X058954Y037999D02*
X058194Y037999D01*
X058194Y038198D02*
X058954Y038198D01*
X058954Y038396D02*
X058194Y038396D01*
X058194Y038595D02*
X058954Y038595D01*
X058954Y038793D02*
X058135Y038793D01*
X058053Y038992D02*
X058954Y038992D01*
X058954Y039190D02*
X057946Y039190D01*
X057747Y039389D02*
X058954Y039389D01*
X058954Y039587D02*
X057464Y039587D01*
X055494Y036808D02*
X043480Y036808D01*
X043704Y036610D02*
X055494Y036610D01*
X055494Y036411D02*
X043878Y036411D01*
X043961Y036213D02*
X055495Y036213D01*
X055577Y036014D02*
X044043Y036014D01*
X044044Y035816D02*
X055659Y035816D01*
X055800Y035617D02*
X044044Y035617D01*
X043996Y035419D02*
X055999Y035419D01*
X056364Y035220D02*
X043914Y035220D01*
X051267Y015767D02*
X055981Y015767D01*
X055645Y015569D02*
X051603Y015569D01*
X051787Y015370D02*
X055461Y015370D01*
X055379Y015172D02*
X051869Y015172D01*
X051925Y014973D02*
X055323Y014973D01*
X055323Y014775D02*
X051925Y014775D01*
X051895Y014576D02*
X055353Y014576D01*
X055435Y014378D02*
X051813Y014378D01*
X051667Y014179D02*
X055581Y014179D01*
X055828Y013981D02*
X051420Y013981D01*
X051467Y013584D02*
X055721Y013584D01*
X055557Y013385D02*
X051631Y013385D01*
X051717Y013187D02*
X055471Y013187D01*
X055461Y012790D02*
X051727Y012790D01*
X051659Y012591D02*
X055529Y012591D01*
X055671Y012393D02*
X051517Y012393D01*
X051221Y012194D02*
X055967Y012194D01*
X056745Y012194D02*
X056945Y012194D01*
X056945Y012393D02*
X056745Y012393D01*
X056745Y012591D02*
X056945Y012591D01*
X056945Y012790D02*
X056745Y012790D01*
X056745Y012988D02*
X050443Y012988D01*
X050443Y012790D02*
X050243Y012790D01*
X050243Y012591D02*
X050443Y012591D01*
X050443Y012393D02*
X050243Y012393D01*
X050243Y012194D02*
X050443Y012194D01*
X051037Y013782D02*
X056151Y013782D01*
X056075Y009418D02*
X055716Y009270D01*
X055441Y008995D01*
X055293Y008636D01*
X055293Y008248D01*
X055441Y007889D01*
X055716Y007615D01*
X056009Y007493D01*
X055666Y007351D01*
X055391Y007076D01*
X055243Y006717D01*
X055243Y006329D01*
X055391Y005970D01*
X055666Y005696D01*
X056025Y005547D01*
X057566Y005547D01*
X057924Y005696D01*
X058199Y005970D01*
X058348Y006329D01*
X058348Y006717D01*
X058199Y007076D01*
X057924Y007351D01*
X057631Y007472D01*
X057974Y007615D01*
X058249Y007889D01*
X058398Y008248D01*
X058398Y008636D01*
X058249Y008995D01*
X057974Y009270D01*
X057616Y009418D01*
X056075Y009418D01*
X056067Y009415D02*
X051121Y009415D01*
X051525Y009217D02*
X055663Y009217D01*
X055465Y009018D02*
X051723Y009018D01*
X051819Y008820D02*
X055369Y008820D01*
X055293Y008621D02*
X051895Y008621D01*
X051895Y008423D02*
X055293Y008423D01*
X055303Y008224D02*
X051885Y008224D01*
X051803Y008026D02*
X055385Y008026D01*
X055503Y007827D02*
X051685Y007827D01*
X051486Y007629D02*
X055702Y007629D01*
X055858Y007430D02*
X051230Y007430D01*
X051541Y007232D02*
X055547Y007232D01*
X055374Y007033D02*
X051714Y007033D01*
X051797Y006835D02*
X055291Y006835D01*
X055243Y006636D02*
X051845Y006636D01*
X051845Y006438D02*
X055243Y006438D01*
X055280Y006239D02*
X051808Y006239D01*
X051726Y006041D02*
X055362Y006041D01*
X055520Y005842D02*
X051568Y005842D01*
X051296Y005644D02*
X055792Y005644D01*
X057799Y005644D02*
X058954Y005644D01*
X058954Y005842D02*
X058071Y005842D01*
X058228Y006041D02*
X058954Y006041D01*
X058954Y006239D02*
X058310Y006239D01*
X058348Y006438D02*
X058954Y006438D01*
X058954Y006636D02*
X058348Y006636D01*
X058299Y006835D02*
X058954Y006835D01*
X058954Y007033D02*
X058217Y007033D01*
X058044Y007232D02*
X058954Y007232D01*
X058954Y007430D02*
X057733Y007430D01*
X057989Y007629D02*
X058954Y007629D01*
X058954Y007827D02*
X058187Y007827D01*
X058306Y008026D02*
X058954Y008026D01*
X058954Y008224D02*
X058388Y008224D01*
X058398Y008423D02*
X058954Y008423D01*
X058954Y008621D02*
X058398Y008621D01*
X058322Y008820D02*
X058954Y008820D01*
X058954Y009018D02*
X058226Y009018D01*
X058027Y009217D02*
X058954Y009217D01*
X058954Y009415D02*
X057623Y009415D01*
X056895Y002666D02*
X056695Y002666D01*
X056695Y002468D02*
X056895Y002468D01*
X056895Y001872D02*
X056695Y001872D01*
X056695Y001674D02*
X056895Y001674D01*
X056895Y001475D02*
X056695Y001475D01*
X056695Y001277D02*
X056895Y001277D01*
X055818Y001277D02*
X051270Y001277D01*
X051260Y001270D02*
X051396Y001360D01*
X051511Y001475D01*
X051601Y001611D01*
X051663Y001761D01*
X051691Y001902D01*
X050393Y001902D01*
X050393Y001176D01*
X050950Y001176D01*
X051110Y001208D01*
X051260Y001270D01*
X051511Y001475D02*
X055577Y001475D01*
X055461Y001674D02*
X051627Y001674D01*
X051686Y001872D02*
X055402Y001872D01*
X055435Y002269D02*
X051653Y002269D01*
X051552Y002468D02*
X055536Y002468D01*
X055726Y002666D02*
X051362Y002666D01*
X050393Y002666D02*
X050193Y002666D01*
X050193Y002468D02*
X050393Y002468D01*
X050393Y001872D02*
X050193Y001872D01*
X050193Y001674D02*
X050393Y001674D01*
X050393Y001475D02*
X050193Y001475D01*
X050193Y001277D02*
X050393Y001277D01*
X049325Y001270D02*
X049190Y001360D01*
X049075Y001475D01*
D16*
X043154Y007883D03*
X041954Y001283D03*
X034154Y001283D03*
X016754Y014083D03*
X013154Y009883D03*
X001354Y001483D03*
X001354Y039483D03*
X036754Y031483D03*
X058354Y039483D03*
M02*
