G75*
G71*
%OFA0B0*%
%FSLAX33Y33*%
%IPPOS*%
%LPD*%
%AMOC8*
5,1,8,0,0,1.08239X$1,22.5*
%
%ADD10R,0.800X2.500*%
%ADD11R,1.200X1.300*%
%ADD12R,1.200X1.200*%
D10*
X005079Y028923D03*
X006349Y028923D03*
X007619Y028923D03*
X008889Y028923D03*
X010159Y028923D03*
X011429Y028923D03*
X012699Y028923D03*
X013969Y028923D03*
X015239Y028923D03*
X016509Y028923D03*
X017779Y028923D03*
X019049Y028923D03*
X020319Y028923D03*
X021589Y028923D03*
X022859Y028923D03*
X024129Y028923D03*
X025399Y028923D03*
X026669Y028923D03*
X027939Y028923D03*
X029209Y028923D03*
X030479Y028923D03*
X031749Y028923D03*
X033019Y028923D03*
X034289Y028923D03*
X035559Y028923D03*
X036829Y028923D03*
X038099Y028923D03*
X039369Y028923D03*
X040639Y028923D03*
X041909Y028923D03*
X043179Y028923D03*
X044449Y028923D03*
X045719Y028923D03*
X046989Y028923D03*
X048259Y028923D03*
X049529Y028923D03*
X050799Y028923D03*
X052069Y028923D03*
X053339Y028923D03*
X054609Y028923D03*
D11*
X046354Y023883D03*
X044354Y023883D03*
X040354Y023883D03*
X038354Y023883D03*
X044554Y018283D03*
X046554Y018283D03*
X046554Y015683D03*
X046554Y013083D03*
X044554Y013083D03*
X044554Y015683D03*
X044554Y010483D03*
X044554Y007883D03*
X046554Y007883D03*
X046554Y010483D03*
X040354Y010483D03*
X038354Y010483D03*
X038354Y007883D03*
X040354Y007883D03*
D12*
X040404Y002083D03*
X038304Y002083D03*
X044504Y002083D03*
X046604Y002083D03*
M02*
