%
M48
M71
T01C0.300
T02C0.500
T03C0.950
T04C1.000
T05C1.600
T06C3.000
%
T01
X1354Y1483
X13154Y9883
X16754Y14083
X34154Y1283
X41954Y1283
X43154Y7883
X36754Y31483
X58354Y39483
X1354Y39483
T02
X2844Y37433
X56844Y37433
T03
X45994Y20723
X43454Y20723
X40914Y20723
X38374Y20723
X35834Y20723
X33294Y20723
X33294Y23263
X30754Y23263
X30754Y20723
X28214Y20723
X28214Y23263
X25674Y23263
X25674Y20723
X23134Y20723
X23134Y23263
X20594Y23263
X20594Y20723
X18054Y20723
X18054Y23263
X15514Y23263
X15514Y20723
X12974Y20723
X12974Y23263
X10434Y23263
X10434Y20723
X7894Y20723
X7894Y23263
X5354Y23263
X5354Y20723
X5354Y8023
X5354Y5483
X7894Y5483
X7894Y8023
X10434Y8023
X10434Y5483
X12974Y5483
X12974Y8023
X15514Y8023
X15514Y5483
X18054Y5483
X18054Y8023
X20594Y8023
X20594Y5483
X23134Y5483
X23134Y8023
X25674Y8023
X25674Y5483
X28214Y5483
X28214Y8023
X30754Y8023
X30754Y5483
X33294Y5483
X33294Y8023
X35834Y5483
X38374Y5483
X40914Y5483
X43454Y5483
X45994Y5483
T04
X50293Y6523
X50343Y8442
X50343Y12963
X50373Y14842
X50373Y19363
X50403Y21242
X50403Y25763
X56905Y25763
X56905Y21242
X56875Y19363
X56875Y14842
X56845Y12963
X56845Y8442
X56795Y6523
X56795Y2002
X50293Y2002
T05
X42844Y35773
X16844Y35773
T06
X4354Y44483
X4354Y71483
X29854Y44483
X55354Y44483
X55354Y71483
M30
