G75*
G71*
%OFA0B0*%
%FSLAX33Y33*%
%IPPOS*%
%LPD*%
%AMOC8*
5,1,8,0,0,1.08239X$1,22.5*
%
%ADD10C,0.000*%
%ADD11C,0.010*%
D10*
X000354Y000483D02*
X000354Y075483D01*
X059354Y075483D01*
X059354Y000483D01*
X000354Y000483D01*
X016044Y035773D02*
X016046Y035829D01*
X016052Y035886D01*
X016062Y035941D01*
X016076Y035996D01*
X016093Y036050D01*
X016115Y036102D01*
X016140Y036152D01*
X016168Y036201D01*
X016200Y036248D01*
X016235Y036292D01*
X016273Y036334D01*
X016314Y036373D01*
X016358Y036408D01*
X016404Y036441D01*
X016452Y036470D01*
X016502Y036496D01*
X016554Y036519D01*
X016608Y036537D01*
X016662Y036552D01*
X016717Y036563D01*
X016773Y036570D01*
X016830Y036573D01*
X016886Y036572D01*
X016943Y036567D01*
X016998Y036558D01*
X017053Y036545D01*
X017107Y036528D01*
X017160Y036508D01*
X017211Y036484D01*
X017260Y036456D01*
X017307Y036425D01*
X017352Y036391D01*
X017395Y036353D01*
X017434Y036313D01*
X017471Y036270D01*
X017504Y036225D01*
X017534Y036177D01*
X017561Y036127D01*
X017584Y036076D01*
X017604Y036023D01*
X017620Y035969D01*
X017632Y035913D01*
X017640Y035858D01*
X017644Y035801D01*
X017644Y035745D01*
X017640Y035688D01*
X017632Y035633D01*
X017620Y035577D01*
X017604Y035523D01*
X017584Y035470D01*
X017561Y035419D01*
X017534Y035369D01*
X017504Y035321D01*
X017471Y035276D01*
X017434Y035233D01*
X017395Y035193D01*
X017352Y035155D01*
X017307Y035121D01*
X017260Y035090D01*
X017211Y035062D01*
X017160Y035038D01*
X017107Y035018D01*
X017053Y035001D01*
X016998Y034988D01*
X016943Y034979D01*
X016886Y034974D01*
X016830Y034973D01*
X016773Y034976D01*
X016717Y034983D01*
X016662Y034994D01*
X016608Y035009D01*
X016554Y035027D01*
X016502Y035050D01*
X016452Y035076D01*
X016404Y035105D01*
X016358Y035138D01*
X016314Y035173D01*
X016273Y035212D01*
X016235Y035254D01*
X016200Y035298D01*
X016168Y035345D01*
X016140Y035394D01*
X016115Y035444D01*
X016093Y035496D01*
X016076Y035550D01*
X016062Y035605D01*
X016052Y035660D01*
X016046Y035717D01*
X016044Y035773D01*
X002854Y044483D02*
X002856Y044560D01*
X002862Y044637D01*
X002872Y044714D01*
X002886Y044790D01*
X002903Y044865D01*
X002925Y044939D01*
X002950Y045012D01*
X002980Y045084D01*
X003012Y045154D01*
X003049Y045222D01*
X003088Y045288D01*
X003131Y045352D01*
X003178Y045414D01*
X003227Y045473D01*
X003280Y045530D01*
X003335Y045584D01*
X003393Y045635D01*
X003454Y045683D01*
X003517Y045728D01*
X003582Y045769D01*
X003649Y045807D01*
X003718Y045842D01*
X003789Y045872D01*
X003861Y045900D01*
X003935Y045923D01*
X004009Y045943D01*
X004085Y045959D01*
X004161Y045971D01*
X004238Y045979D01*
X004315Y045983D01*
X004393Y045983D01*
X004470Y045979D01*
X004547Y045971D01*
X004623Y045959D01*
X004699Y045943D01*
X004773Y045923D01*
X004847Y045900D01*
X004919Y045872D01*
X004990Y045842D01*
X005059Y045807D01*
X005126Y045769D01*
X005191Y045728D01*
X005254Y045683D01*
X005315Y045635D01*
X005373Y045584D01*
X005428Y045530D01*
X005481Y045473D01*
X005530Y045414D01*
X005577Y045352D01*
X005620Y045288D01*
X005659Y045222D01*
X005696Y045154D01*
X005728Y045084D01*
X005758Y045012D01*
X005783Y044939D01*
X005805Y044865D01*
X005822Y044790D01*
X005836Y044714D01*
X005846Y044637D01*
X005852Y044560D01*
X005854Y044483D01*
X005852Y044406D01*
X005846Y044329D01*
X005836Y044252D01*
X005822Y044176D01*
X005805Y044101D01*
X005783Y044027D01*
X005758Y043954D01*
X005728Y043882D01*
X005696Y043812D01*
X005659Y043744D01*
X005620Y043678D01*
X005577Y043614D01*
X005530Y043552D01*
X005481Y043493D01*
X005428Y043436D01*
X005373Y043382D01*
X005315Y043331D01*
X005254Y043283D01*
X005191Y043238D01*
X005126Y043197D01*
X005059Y043159D01*
X004990Y043124D01*
X004919Y043094D01*
X004847Y043066D01*
X004773Y043043D01*
X004699Y043023D01*
X004623Y043007D01*
X004547Y042995D01*
X004470Y042987D01*
X004393Y042983D01*
X004315Y042983D01*
X004238Y042987D01*
X004161Y042995D01*
X004085Y043007D01*
X004009Y043023D01*
X003935Y043043D01*
X003861Y043066D01*
X003789Y043094D01*
X003718Y043124D01*
X003649Y043159D01*
X003582Y043197D01*
X003517Y043238D01*
X003454Y043283D01*
X003393Y043331D01*
X003335Y043382D01*
X003280Y043436D01*
X003227Y043493D01*
X003178Y043552D01*
X003131Y043614D01*
X003088Y043678D01*
X003049Y043744D01*
X003012Y043812D01*
X002980Y043882D01*
X002950Y043954D01*
X002925Y044027D01*
X002903Y044101D01*
X002886Y044176D01*
X002872Y044252D01*
X002862Y044329D01*
X002856Y044406D01*
X002854Y044483D01*
X002854Y071483D02*
X002856Y071560D01*
X002862Y071637D01*
X002872Y071714D01*
X002886Y071790D01*
X002903Y071865D01*
X002925Y071939D01*
X002950Y072012D01*
X002980Y072084D01*
X003012Y072154D01*
X003049Y072222D01*
X003088Y072288D01*
X003131Y072352D01*
X003178Y072414D01*
X003227Y072473D01*
X003280Y072530D01*
X003335Y072584D01*
X003393Y072635D01*
X003454Y072683D01*
X003517Y072728D01*
X003582Y072769D01*
X003649Y072807D01*
X003718Y072842D01*
X003789Y072872D01*
X003861Y072900D01*
X003935Y072923D01*
X004009Y072943D01*
X004085Y072959D01*
X004161Y072971D01*
X004238Y072979D01*
X004315Y072983D01*
X004393Y072983D01*
X004470Y072979D01*
X004547Y072971D01*
X004623Y072959D01*
X004699Y072943D01*
X004773Y072923D01*
X004847Y072900D01*
X004919Y072872D01*
X004990Y072842D01*
X005059Y072807D01*
X005126Y072769D01*
X005191Y072728D01*
X005254Y072683D01*
X005315Y072635D01*
X005373Y072584D01*
X005428Y072530D01*
X005481Y072473D01*
X005530Y072414D01*
X005577Y072352D01*
X005620Y072288D01*
X005659Y072222D01*
X005696Y072154D01*
X005728Y072084D01*
X005758Y072012D01*
X005783Y071939D01*
X005805Y071865D01*
X005822Y071790D01*
X005836Y071714D01*
X005846Y071637D01*
X005852Y071560D01*
X005854Y071483D01*
X005852Y071406D01*
X005846Y071329D01*
X005836Y071252D01*
X005822Y071176D01*
X005805Y071101D01*
X005783Y071027D01*
X005758Y070954D01*
X005728Y070882D01*
X005696Y070812D01*
X005659Y070744D01*
X005620Y070678D01*
X005577Y070614D01*
X005530Y070552D01*
X005481Y070493D01*
X005428Y070436D01*
X005373Y070382D01*
X005315Y070331D01*
X005254Y070283D01*
X005191Y070238D01*
X005126Y070197D01*
X005059Y070159D01*
X004990Y070124D01*
X004919Y070094D01*
X004847Y070066D01*
X004773Y070043D01*
X004699Y070023D01*
X004623Y070007D01*
X004547Y069995D01*
X004470Y069987D01*
X004393Y069983D01*
X004315Y069983D01*
X004238Y069987D01*
X004161Y069995D01*
X004085Y070007D01*
X004009Y070023D01*
X003935Y070043D01*
X003861Y070066D01*
X003789Y070094D01*
X003718Y070124D01*
X003649Y070159D01*
X003582Y070197D01*
X003517Y070238D01*
X003454Y070283D01*
X003393Y070331D01*
X003335Y070382D01*
X003280Y070436D01*
X003227Y070493D01*
X003178Y070552D01*
X003131Y070614D01*
X003088Y070678D01*
X003049Y070744D01*
X003012Y070812D01*
X002980Y070882D01*
X002950Y070954D01*
X002925Y071027D01*
X002903Y071101D01*
X002886Y071176D01*
X002872Y071252D01*
X002862Y071329D01*
X002856Y071406D01*
X002854Y071483D01*
X028354Y044483D02*
X028356Y044560D01*
X028362Y044637D01*
X028372Y044714D01*
X028386Y044790D01*
X028403Y044865D01*
X028425Y044939D01*
X028450Y045012D01*
X028480Y045084D01*
X028512Y045154D01*
X028549Y045222D01*
X028588Y045288D01*
X028631Y045352D01*
X028678Y045414D01*
X028727Y045473D01*
X028780Y045530D01*
X028835Y045584D01*
X028893Y045635D01*
X028954Y045683D01*
X029017Y045728D01*
X029082Y045769D01*
X029149Y045807D01*
X029218Y045842D01*
X029289Y045872D01*
X029361Y045900D01*
X029435Y045923D01*
X029509Y045943D01*
X029585Y045959D01*
X029661Y045971D01*
X029738Y045979D01*
X029815Y045983D01*
X029893Y045983D01*
X029970Y045979D01*
X030047Y045971D01*
X030123Y045959D01*
X030199Y045943D01*
X030273Y045923D01*
X030347Y045900D01*
X030419Y045872D01*
X030490Y045842D01*
X030559Y045807D01*
X030626Y045769D01*
X030691Y045728D01*
X030754Y045683D01*
X030815Y045635D01*
X030873Y045584D01*
X030928Y045530D01*
X030981Y045473D01*
X031030Y045414D01*
X031077Y045352D01*
X031120Y045288D01*
X031159Y045222D01*
X031196Y045154D01*
X031228Y045084D01*
X031258Y045012D01*
X031283Y044939D01*
X031305Y044865D01*
X031322Y044790D01*
X031336Y044714D01*
X031346Y044637D01*
X031352Y044560D01*
X031354Y044483D01*
X031352Y044406D01*
X031346Y044329D01*
X031336Y044252D01*
X031322Y044176D01*
X031305Y044101D01*
X031283Y044027D01*
X031258Y043954D01*
X031228Y043882D01*
X031196Y043812D01*
X031159Y043744D01*
X031120Y043678D01*
X031077Y043614D01*
X031030Y043552D01*
X030981Y043493D01*
X030928Y043436D01*
X030873Y043382D01*
X030815Y043331D01*
X030754Y043283D01*
X030691Y043238D01*
X030626Y043197D01*
X030559Y043159D01*
X030490Y043124D01*
X030419Y043094D01*
X030347Y043066D01*
X030273Y043043D01*
X030199Y043023D01*
X030123Y043007D01*
X030047Y042995D01*
X029970Y042987D01*
X029893Y042983D01*
X029815Y042983D01*
X029738Y042987D01*
X029661Y042995D01*
X029585Y043007D01*
X029509Y043023D01*
X029435Y043043D01*
X029361Y043066D01*
X029289Y043094D01*
X029218Y043124D01*
X029149Y043159D01*
X029082Y043197D01*
X029017Y043238D01*
X028954Y043283D01*
X028893Y043331D01*
X028835Y043382D01*
X028780Y043436D01*
X028727Y043493D01*
X028678Y043552D01*
X028631Y043614D01*
X028588Y043678D01*
X028549Y043744D01*
X028512Y043812D01*
X028480Y043882D01*
X028450Y043954D01*
X028425Y044027D01*
X028403Y044101D01*
X028386Y044176D01*
X028372Y044252D01*
X028362Y044329D01*
X028356Y044406D01*
X028354Y044483D01*
X042044Y035773D02*
X042046Y035829D01*
X042052Y035886D01*
X042062Y035941D01*
X042076Y035996D01*
X042093Y036050D01*
X042115Y036102D01*
X042140Y036152D01*
X042168Y036201D01*
X042200Y036248D01*
X042235Y036292D01*
X042273Y036334D01*
X042314Y036373D01*
X042358Y036408D01*
X042404Y036441D01*
X042452Y036470D01*
X042502Y036496D01*
X042554Y036519D01*
X042608Y036537D01*
X042662Y036552D01*
X042717Y036563D01*
X042773Y036570D01*
X042830Y036573D01*
X042886Y036572D01*
X042943Y036567D01*
X042998Y036558D01*
X043053Y036545D01*
X043107Y036528D01*
X043160Y036508D01*
X043211Y036484D01*
X043260Y036456D01*
X043307Y036425D01*
X043352Y036391D01*
X043395Y036353D01*
X043434Y036313D01*
X043471Y036270D01*
X043504Y036225D01*
X043534Y036177D01*
X043561Y036127D01*
X043584Y036076D01*
X043604Y036023D01*
X043620Y035969D01*
X043632Y035913D01*
X043640Y035858D01*
X043644Y035801D01*
X043644Y035745D01*
X043640Y035688D01*
X043632Y035633D01*
X043620Y035577D01*
X043604Y035523D01*
X043584Y035470D01*
X043561Y035419D01*
X043534Y035369D01*
X043504Y035321D01*
X043471Y035276D01*
X043434Y035233D01*
X043395Y035193D01*
X043352Y035155D01*
X043307Y035121D01*
X043260Y035090D01*
X043211Y035062D01*
X043160Y035038D01*
X043107Y035018D01*
X043053Y035001D01*
X042998Y034988D01*
X042943Y034979D01*
X042886Y034974D01*
X042830Y034973D01*
X042773Y034976D01*
X042717Y034983D01*
X042662Y034994D01*
X042608Y035009D01*
X042554Y035027D01*
X042502Y035050D01*
X042452Y035076D01*
X042404Y035105D01*
X042358Y035138D01*
X042314Y035173D01*
X042273Y035212D01*
X042235Y035254D01*
X042200Y035298D01*
X042168Y035345D01*
X042140Y035394D01*
X042115Y035444D01*
X042093Y035496D01*
X042076Y035550D01*
X042062Y035605D01*
X042052Y035660D01*
X042046Y035717D01*
X042044Y035773D01*
X053854Y044483D02*
X053856Y044560D01*
X053862Y044637D01*
X053872Y044714D01*
X053886Y044790D01*
X053903Y044865D01*
X053925Y044939D01*
X053950Y045012D01*
X053980Y045084D01*
X054012Y045154D01*
X054049Y045222D01*
X054088Y045288D01*
X054131Y045352D01*
X054178Y045414D01*
X054227Y045473D01*
X054280Y045530D01*
X054335Y045584D01*
X054393Y045635D01*
X054454Y045683D01*
X054517Y045728D01*
X054582Y045769D01*
X054649Y045807D01*
X054718Y045842D01*
X054789Y045872D01*
X054861Y045900D01*
X054935Y045923D01*
X055009Y045943D01*
X055085Y045959D01*
X055161Y045971D01*
X055238Y045979D01*
X055315Y045983D01*
X055393Y045983D01*
X055470Y045979D01*
X055547Y045971D01*
X055623Y045959D01*
X055699Y045943D01*
X055773Y045923D01*
X055847Y045900D01*
X055919Y045872D01*
X055990Y045842D01*
X056059Y045807D01*
X056126Y045769D01*
X056191Y045728D01*
X056254Y045683D01*
X056315Y045635D01*
X056373Y045584D01*
X056428Y045530D01*
X056481Y045473D01*
X056530Y045414D01*
X056577Y045352D01*
X056620Y045288D01*
X056659Y045222D01*
X056696Y045154D01*
X056728Y045084D01*
X056758Y045012D01*
X056783Y044939D01*
X056805Y044865D01*
X056822Y044790D01*
X056836Y044714D01*
X056846Y044637D01*
X056852Y044560D01*
X056854Y044483D01*
X056852Y044406D01*
X056846Y044329D01*
X056836Y044252D01*
X056822Y044176D01*
X056805Y044101D01*
X056783Y044027D01*
X056758Y043954D01*
X056728Y043882D01*
X056696Y043812D01*
X056659Y043744D01*
X056620Y043678D01*
X056577Y043614D01*
X056530Y043552D01*
X056481Y043493D01*
X056428Y043436D01*
X056373Y043382D01*
X056315Y043331D01*
X056254Y043283D01*
X056191Y043238D01*
X056126Y043197D01*
X056059Y043159D01*
X055990Y043124D01*
X055919Y043094D01*
X055847Y043066D01*
X055773Y043043D01*
X055699Y043023D01*
X055623Y043007D01*
X055547Y042995D01*
X055470Y042987D01*
X055393Y042983D01*
X055315Y042983D01*
X055238Y042987D01*
X055161Y042995D01*
X055085Y043007D01*
X055009Y043023D01*
X054935Y043043D01*
X054861Y043066D01*
X054789Y043094D01*
X054718Y043124D01*
X054649Y043159D01*
X054582Y043197D01*
X054517Y043238D01*
X054454Y043283D01*
X054393Y043331D01*
X054335Y043382D01*
X054280Y043436D01*
X054227Y043493D01*
X054178Y043552D01*
X054131Y043614D01*
X054088Y043678D01*
X054049Y043744D01*
X054012Y043812D01*
X053980Y043882D01*
X053950Y043954D01*
X053925Y044027D01*
X053903Y044101D01*
X053886Y044176D01*
X053872Y044252D01*
X053862Y044329D01*
X053856Y044406D01*
X053854Y044483D01*
X053854Y071483D02*
X053856Y071560D01*
X053862Y071637D01*
X053872Y071714D01*
X053886Y071790D01*
X053903Y071865D01*
X053925Y071939D01*
X053950Y072012D01*
X053980Y072084D01*
X054012Y072154D01*
X054049Y072222D01*
X054088Y072288D01*
X054131Y072352D01*
X054178Y072414D01*
X054227Y072473D01*
X054280Y072530D01*
X054335Y072584D01*
X054393Y072635D01*
X054454Y072683D01*
X054517Y072728D01*
X054582Y072769D01*
X054649Y072807D01*
X054718Y072842D01*
X054789Y072872D01*
X054861Y072900D01*
X054935Y072923D01*
X055009Y072943D01*
X055085Y072959D01*
X055161Y072971D01*
X055238Y072979D01*
X055315Y072983D01*
X055393Y072983D01*
X055470Y072979D01*
X055547Y072971D01*
X055623Y072959D01*
X055699Y072943D01*
X055773Y072923D01*
X055847Y072900D01*
X055919Y072872D01*
X055990Y072842D01*
X056059Y072807D01*
X056126Y072769D01*
X056191Y072728D01*
X056254Y072683D01*
X056315Y072635D01*
X056373Y072584D01*
X056428Y072530D01*
X056481Y072473D01*
X056530Y072414D01*
X056577Y072352D01*
X056620Y072288D01*
X056659Y072222D01*
X056696Y072154D01*
X056728Y072084D01*
X056758Y072012D01*
X056783Y071939D01*
X056805Y071865D01*
X056822Y071790D01*
X056836Y071714D01*
X056846Y071637D01*
X056852Y071560D01*
X056854Y071483D01*
X056852Y071406D01*
X056846Y071329D01*
X056836Y071252D01*
X056822Y071176D01*
X056805Y071101D01*
X056783Y071027D01*
X056758Y070954D01*
X056728Y070882D01*
X056696Y070812D01*
X056659Y070744D01*
X056620Y070678D01*
X056577Y070614D01*
X056530Y070552D01*
X056481Y070493D01*
X056428Y070436D01*
X056373Y070382D01*
X056315Y070331D01*
X056254Y070283D01*
X056191Y070238D01*
X056126Y070197D01*
X056059Y070159D01*
X055990Y070124D01*
X055919Y070094D01*
X055847Y070066D01*
X055773Y070043D01*
X055699Y070023D01*
X055623Y070007D01*
X055547Y069995D01*
X055470Y069987D01*
X055393Y069983D01*
X055315Y069983D01*
X055238Y069987D01*
X055161Y069995D01*
X055085Y070007D01*
X055009Y070023D01*
X054935Y070043D01*
X054861Y070066D01*
X054789Y070094D01*
X054718Y070124D01*
X054649Y070159D01*
X054582Y070197D01*
X054517Y070238D01*
X054454Y070283D01*
X054393Y070331D01*
X054335Y070382D01*
X054280Y070436D01*
X054227Y070493D01*
X054178Y070552D01*
X054131Y070614D01*
X054088Y070678D01*
X054049Y070744D01*
X054012Y070812D01*
X053980Y070882D01*
X053950Y070954D01*
X053925Y071027D01*
X053903Y071101D01*
X053886Y071176D01*
X053872Y071252D01*
X053862Y071329D01*
X053856Y071406D01*
X053854Y071483D01*
D11*
X056594Y038083D02*
X056594Y036783D01*
X056596Y036753D01*
X056601Y036723D01*
X056610Y036694D01*
X056623Y036667D01*
X056638Y036641D01*
X056657Y036617D01*
X056678Y036596D01*
X056702Y036577D01*
X056728Y036562D01*
X056755Y036549D01*
X056784Y036540D01*
X056814Y036535D01*
X056844Y036533D01*
X056874Y036535D01*
X056904Y036540D01*
X056933Y036549D01*
X056960Y036562D01*
X056986Y036577D01*
X057010Y036596D01*
X057031Y036617D01*
X057050Y036641D01*
X057065Y036667D01*
X057078Y036694D01*
X057087Y036723D01*
X057092Y036753D01*
X057094Y036783D01*
X057094Y038083D01*
X057092Y038113D01*
X057087Y038143D01*
X057078Y038172D01*
X057065Y038199D01*
X057050Y038225D01*
X057031Y038249D01*
X057010Y038270D01*
X056986Y038289D01*
X056960Y038304D01*
X056933Y038317D01*
X056904Y038326D01*
X056874Y038331D01*
X056844Y038333D01*
X056814Y038331D01*
X056784Y038326D01*
X056755Y038317D01*
X056728Y038304D01*
X056702Y038289D01*
X056678Y038270D01*
X056657Y038249D01*
X056638Y038225D01*
X056623Y038199D01*
X056610Y038172D01*
X056601Y038143D01*
X056596Y038113D01*
X056594Y038083D01*
X003094Y038083D02*
X003094Y036783D01*
X003092Y036753D01*
X003087Y036723D01*
X003078Y036694D01*
X003065Y036667D01*
X003050Y036641D01*
X003031Y036617D01*
X003010Y036596D01*
X002986Y036577D01*
X002960Y036562D01*
X002933Y036549D01*
X002904Y036540D01*
X002874Y036535D01*
X002844Y036533D01*
X002814Y036535D01*
X002784Y036540D01*
X002755Y036549D01*
X002728Y036562D01*
X002702Y036577D01*
X002678Y036596D01*
X002657Y036617D01*
X002638Y036641D01*
X002623Y036667D01*
X002610Y036694D01*
X002601Y036723D01*
X002596Y036753D01*
X002594Y036783D01*
X002594Y038083D01*
X002596Y038113D01*
X002601Y038143D01*
X002610Y038172D01*
X002623Y038199D01*
X002638Y038225D01*
X002657Y038249D01*
X002678Y038270D01*
X002702Y038289D01*
X002728Y038304D01*
X002755Y038317D01*
X002784Y038326D01*
X002814Y038331D01*
X002844Y038333D01*
X002874Y038331D01*
X002904Y038326D01*
X002933Y038317D01*
X002960Y038304D01*
X002986Y038289D01*
X003010Y038270D01*
X003031Y038249D01*
X003050Y038225D01*
X003065Y038199D01*
X003078Y038172D01*
X003087Y038143D01*
X003092Y038113D01*
X003094Y038083D01*
M02*
